<svg id="svg" xmlns="http://www.w3.org/2000/svg" xmlns:xlink="http://www.w3.org/1999/xlink" width="400" height="167.24137931034483" viewBox="0, 0, 400,167.24137931034483"><g id="svgg"><path id="path0" d="M106.254 28.634 C 105.995 29.048,105.993 36.464,106.251 37.031 C 106.506 37.590,106.891 37.641,110.861 37.641 L 114.278 37.641 114.688 37.198 C 115.147 36.704,115.128 36.937,115.105 32.037 L 115.090 29.026 114.655 28.639 C 114.052 28.103,106.588 28.099,106.254 28.634 M146.537 28.583 L 146.131 28.912 146.083 32.860 C 146.039 36.437,146.063 36.846,146.334 37.211 L 146.633 37.614 150.690 37.611 L 154.748 37.608 155.078 37.144 C 155.466 36.600,155.503 29.378,155.122 28.677 C 154.834 28.147,147.179 28.064,146.537 28.583 M116.269 38.301 C 116.060 38.438,116.010 39.154,115.966 42.643 L 115.914 46.821 116.318 47.085 C 116.664 47.312,117.318 47.344,120.885 47.305 L 125.048 47.261 125.301 46.759 C 125.552 46.261,125.613 38.565,125.368 38.319 C 125.197 38.148,116.530 38.130,116.269 38.301 M136.554 38.252 C 136.285 38.363,136.251 46.522,136.518 47.021 C 136.682 47.328,136.911 47.344,141.032 47.344 L 145.372 47.344 145.464 46.968 C 145.515 46.761,145.535 44.709,145.509 42.409 L 145.462 38.227 141.113 38.197 C 138.720 38.180,136.669 38.205,136.554 38.252 M126.251 48.460 C 126.190 48.521,126.140 50.577,126.140 53.028 C 126.140 56.614,126.093 57.549,125.902 57.810 C 125.670 58.128,125.256 58.135,106.142 58.165 L 86.620 58.196 86.221 58.571 L 85.822 58.946 85.822 63.416 C 85.822 69.221,86.422 68.617,80.679 68.596 C 76.869 68.583,76.234 68.617,75.870 68.856 L 75.450 69.131 75.450 93.517 L 75.450 117.903 75.826 118.004 C 76.451 118.172,84.095 118.122,84.554 117.947 L 84.981 117.785 85.025 98.057 C 85.068 78.924,85.079 78.318,85.388 77.977 C 85.696 77.636,85.846 77.624,90.080 77.624 C 93.259 77.624,94.509 77.570,94.655 77.424 C 94.801 77.278,94.856 76.044,94.856 72.922 L 94.856 68.620 95.370 68.187 L 95.885 67.754 130.657 67.754 L 165.428 67.754 165.943 68.187 L 166.458 68.620 166.458 73.021 C 166.458 76.879,166.490 77.434,166.722 77.523 C 166.868 77.579,168.942 77.624,171.331 77.624 C 175.521 77.624,176.199 77.694,176.702 78.172 C 176.724 78.193,176.780 87.169,176.827 98.118 L 176.913 118.026 180.678 118.076 C 182.748 118.103,184.762 118.080,185.153 118.024 L 185.864 117.922 185.864 93.528 C 185.864 71.045,185.842 69.115,185.587 68.904 C 185.372 68.725,184.398 68.667,181.180 68.642 C 175.146 68.596,175.708 69.144,175.688 63.280 C 175.672 58.367,175.643 58.220,174.691 58.216 C 174.349 58.214,165.549 58.195,155.136 58.174 C 136.247 58.135,136.201 58.134,135.736 57.787 L 135.269 57.438 135.321 53.138 C 135.359 49.945,135.320 48.775,135.169 48.593 C 134.955 48.335,126.502 48.209,126.251 48.460 M206.239 70.984 C 205.807 71.094,205.359 71.278,205.244 71.393 C 205.129 71.508,204.954 71.602,204.855 71.602 C 204.347 71.602,202.216 74.216,201.828 75.316 C 201.694 75.696,201.516 76.089,201.432 76.191 C 201.347 76.292,201.156 77.084,201.005 77.950 C 200.855 78.817,200.657 79.665,200.566 79.836 C 200.168 80.579,200.823 88.782,201.347 89.610 C 201.472 89.807,201.691 90.475,201.835 91.094 C 201.978 91.713,202.264 92.434,202.470 92.696 C 202.676 92.958,203.070 93.466,203.346 93.826 C 204.296 95.066,207.180 96.075,208.622 95.673 C 208.849 95.610,209.266 95.551,209.549 95.542 C 210.034 95.526,211.227 94.854,212.102 94.104 C 213.607 92.814,215.015 88.777,214.334 87.705 C 214.177 87.458,212.346 87.237,211.734 87.390 C 211.220 87.519,210.877 88.198,210.633 89.570 C 210.090 92.628,206.943 93.572,205.942 90.976 C 205.824 90.672,205.594 90.121,205.429 89.753 C 204.363 87.362,204.606 78.109,205.801 75.662 C 206.784 73.647,208.929 73.307,209.577 75.064 C 209.926 76.009,210.268 77.061,210.526 77.983 C 210.844 79.121,210.875 79.135,212.783 79.012 L 214.298 78.914 214.403 78.352 C 214.523 77.714,214.356 76.338,214.143 76.207 C 214.066 76.159,213.913 75.747,213.804 75.291 C 213.695 74.835,213.510 74.384,213.395 74.288 C 213.279 74.192,213.053 73.830,212.894 73.485 C 211.972 71.491,208.854 70.319,206.239 70.984 M223.254 70.944 C 219.864 71.953,217.653 76.926,217.941 82.894 C 218.141 87.046,218.456 88.920,219.435 91.786 C 220.979 96.307,227.795 97.189,230.298 93.191 C 232.267 90.045,233.269 82.283,232.234 78.197 C 232.142 77.836,232.018 77.180,231.957 76.740 C 231.391 72.623,227.135 69.788,223.254 70.944 M237.250 71.526 C 236.983 72.112,236.973 94.066,237.239 94.831 L 237.423 95.358 240.543 95.356 C 244.767 95.353,246.484 94.824,248.219 92.992 C 249.011 92.156,250.602 89.352,250.605 88.788 C 250.606 88.626,250.752 87.948,250.930 87.283 C 252.130 82.805,250.730 74.994,248.472 73.558 C 248.355 73.483,248.129 73.285,247.969 73.118 C 246.589 71.668,244.508 71.100,240.578 71.100 L 237.444 71.100 237.250 71.526 M255.870 71.441 C 255.563 71.780,255.273 93.109,255.555 94.540 C 255.707 95.307,256.091 95.358,261.724 95.358 L 266.972 95.358 267.405 94.843 C 267.933 94.215,268.048 92.463,267.573 92.281 C 267.428 92.225,265.773 92.179,263.897 92.179 L 260.485 92.179 260.194 91.635 C 259.949 91.178,259.901 90.619,259.897 88.128 C 259.890 84.367,259.779 84.526,262.467 84.439 C 264.837 84.362,265.161 84.125,265.161 82.471 C 265.161 81.130,264.861 80.970,262.331 80.970 L 260.489 80.970 260.077 80.365 C 259.686 79.789,259.670 79.666,259.745 77.897 C 259.907 74.115,259.731 74.279,263.630 74.279 C 267.075 74.279,267.108 74.267,267.329 72.940 C 267.459 72.161,267.436 71.956,267.182 71.602 L 266.882 71.184 261.532 71.140 C 256.308 71.096,256.176 71.103,255.870 71.441 M271.849 71.527 C 271.671 71.995,271.616 94.327,271.791 94.981 C 271.888 95.342,271.966 95.358,273.696 95.358 L 275.501 95.358 275.684 94.831 C 275.799 94.501,275.868 92.693,275.868 89.998 C 275.868 84.570,275.679 84.936,278.543 84.818 C 280.894 84.721,281.054 84.624,281.054 83.288 C 281.054 81.725,280.979 81.674,278.592 81.611 C 275.763 81.536,275.868 81.677,275.868 77.959 C 275.868 74.107,275.570 74.386,279.791 74.279 C 282.464 74.210,283.103 74.148,283.230 73.944 C 283.490 73.526,283.614 72.280,283.452 71.715 L 283.300 71.184 277.657 71.140 L 272.013 71.095 271.849 71.527 M288.597 71.267 C 287.330 71.411,287.079 71.657,287.072 72.763 C 287.011 82.344,287.119 94.432,287.269 94.760 C 287.533 95.339,287.666 95.353,293.152 95.355 C 298.606 95.358,298.682 95.345,298.946 94.394 C 299.532 92.284,299.388 92.196,295.279 92.141 L 291.880 92.095 291.528 91.623 C 291.180 91.157,291.175 91.028,291.142 81.418 L 291.109 71.686 290.747 71.393 C 290.363 71.082,290.276 71.077,288.597 71.267 M304.197 71.218 C 302.471 71.309,302.610 70.415,302.613 81.421 C 302.617 95.440,302.609 94.927,302.844 95.213 C 303.157 95.593,305.989 95.386,306.473 94.948 C 306.913 94.550,307.028 71.818,306.592 71.456 C 306.292 71.207,305.642 71.143,304.197 71.218 M311.033 71.301 C 310.659 71.675,310.830 72.144,312.756 76.024 C 313.814 78.156,314.680 80.015,314.680 80.155 C 314.680 80.296,314.918 80.770,315.209 81.209 C 315.898 82.250,315.977 83.670,315.389 84.465 C 315.183 84.744,315.015 85.023,315.015 85.085 C 315.015 85.147,314.535 86.185,313.950 87.392 C 313.364 88.599,312.676 90.038,312.422 90.590 C 312.167 91.142,311.636 92.233,311.242 93.015 C 310.220 95.047,310.304 95.358,311.875 95.358 C 313.433 95.358,314.218 94.941,314.509 93.958 C 314.621 93.578,314.810 93.153,314.928 93.015 C 315.046 92.877,315.198 92.576,315.265 92.346 C 315.528 91.454,316.894 88.855,317.299 88.477 L 317.725 88.080 318.293 88.736 C 318.606 89.096,318.862 89.481,318.862 89.590 C 318.862 89.700,319.088 90.213,319.364 90.730 C 319.640 91.248,319.866 91.774,319.866 91.900 C 319.866 92.026,320.042 92.461,320.258 92.866 C 320.473 93.271,320.737 93.869,320.845 94.194 C 321.148 95.112,321.673 95.322,323.732 95.345 C 325.929 95.369,326.048 95.284,325.756 93.894 C 325.648 93.380,325.408 92.798,325.223 92.600 C 325.037 92.403,324.883 92.171,324.880 92.085 C 324.877 91.998,324.651 91.478,324.378 90.929 C 324.105 90.379,323.881 89.800,323.881 89.642 C 323.881 89.484,323.801 89.305,323.703 89.244 C 323.497 89.118,321.342 84.674,320.836 83.334 C 320.288 81.884,320.415 81.462,322.859 76.578 C 325.637 71.025,325.628 71.100,323.478 71.100 C 321.954 71.100,321.229 71.555,320.964 72.679 C 320.900 72.949,320.716 73.364,320.554 73.599 C 320.393 73.835,320.125 74.393,319.959 74.840 C 318.968 77.512,318.162 77.290,316.685 73.938 C 315.477 71.197,315.352 71.100,313.028 71.100 C 311.856 71.100,311.164 71.170,311.033 71.301 M226.779 74.559 C 228.056 75.936,228.524 78.242,228.524 83.158 C 228.524 89.392,227.707 92.087,225.716 92.424 C 223.842 92.740,222.552 90.963,222.319 87.746 C 221.790 80.434,222.484 75.072,224.058 74.311 C 224.839 73.934,226.326 74.069,226.779 74.559 M244.082 74.739 C 246.211 75.608,247.137 78.182,247.163 83.312 C 247.190 88.456,246.194 90.883,243.668 91.828 C 242.680 92.198,242.399 92.158,241.698 91.546 C 241.397 91.284,241.225 75.780,241.514 75.026 C 241.779 74.336,242.810 74.221,244.082 74.739 M86.230 119.350 C 85.679 119.753,85.583 127.474,86.123 128.014 C 86.285 128.176,87.459 128.252,90.807 128.315 C 96.624 128.423,95.974 127.813,96.010 133.201 C 96.035 137.077,96.071 137.624,96.316 137.808 C 96.669 138.075,104.078 138.108,104.570 137.844 C 104.875 137.681,104.893 137.456,104.895 133.871 C 104.897 129.271,104.947 128.884,105.577 128.558 C 106.233 128.219,155.249 128.193,155.918 128.531 L 156.336 128.742 156.381 133.155 C 156.421 137.112,156.455 137.589,156.715 137.787 C 157.114 138.090,164.953 138.117,165.253 137.817 C 165.399 137.671,165.454 136.417,165.454 133.222 C 165.454 127.809,164.779 128.424,170.835 128.315 C 173.381 128.269,175.507 128.188,175.559 128.136 C 175.867 127.826,175.734 119.582,175.417 119.350 C 174.929 118.993,86.719 118.993,86.230 119.350 " stroke="none" fill="#962627" fill-rule="evenodd"></path><path id="path1" d="M0.000 83.647 L 0.000 167.294 200.000 167.294 L 400.000 167.294 400.000 83.647 L 400.000 0.000 200.000 0.000 L 0.000 0.000 0.000 83.647 M115.129 27.118 C 115.801 27.290,116.479 28.156,116.465 28.824 C 116.461 29.027,116.416 30.473,116.367 32.037 C 116.282 34.699,116.405 36.222,116.751 36.775 C 116.858 36.946,117.884 37.011,121.304 37.064 C 124.678 37.117,125.735 37.183,125.787 37.345 C 125.824 37.462,125.956 37.618,126.081 37.691 C 126.205 37.765,126.307 37.934,126.307 38.068 C 126.307 38.201,126.397 38.310,126.508 38.310 C 126.664 38.310,126.664 38.355,126.508 38.511 C 126.146 38.872,126.231 46.555,126.600 46.885 C 126.980 47.226,134.339 47.251,134.801 46.913 C 135.049 46.732,135.074 46.268,135.034 42.584 C 134.985 38.007,134.999 37.888,135.629 37.730 C 135.873 37.669,136.155 37.507,136.256 37.369 C 136.407 37.162,137.119 37.113,140.448 37.079 C 143.054 37.052,144.619 36.969,144.918 36.842 L 145.379 36.646 145.381 32.250 C 145.384 27.476,145.379 27.500,146.323 27.147 C 147.151 26.837,154.734 26.817,155.751 27.121 C 156.851 27.451,156.913 27.744,156.934 32.671 C 156.959 38.750,157.405 38.304,151.297 38.308 L 146.926 38.310 146.821 38.833 C 146.764 39.121,146.717 41.068,146.717 43.160 C 146.717 46.711,146.695 46.993,146.382 47.390 C 146.198 47.624,146.048 47.893,146.048 47.988 C 146.048 48.592,145.391 48.683,141.004 48.683 L 136.703 48.683 136.594 49.561 C 136.395 51.155,136.568 56.796,136.825 57.106 C 137.036 57.359,138.628 57.383,156.399 57.391 C 170.926 57.398,175.888 57.450,176.328 57.600 L 176.913 57.800 176.997 62.282 C 177.100 67.802,176.482 67.192,182.100 67.313 C 184.055 67.355,185.837 67.471,186.118 67.574 C 187.190 67.968,187.114 66.100,187.164 93.209 L 187.209 117.911 186.863 118.497 C 186.357 119.355,186.327 119.360,181.654 119.362 C 179.292 119.363,177.297 119.427,177.220 119.504 C 177.144 119.580,177.065 121.575,177.046 123.937 C 177.027 126.299,177.008 128.286,177.004 128.354 C 177.000 128.422,176.677 128.686,176.286 128.940 L 175.575 129.402 171.629 129.438 C 166.135 129.488,166.625 128.980,166.625 134.620 C 166.625 138.757,166.604 138.854,165.615 139.359 C 164.613 139.870,156.888 139.842,155.892 139.323 C 155.012 138.864,155.067 139.184,155.025 134.341 C 154.997 131.094,154.934 129.940,154.775 129.782 C 154.360 129.366,106.836 129.327,106.421 129.742 C 106.368 129.795,106.334 131.773,106.344 134.137 C 106.371 140.016,106.725 139.691,100.297 139.691 L 96.077 139.691 95.383 139.188 L 94.688 138.685 94.684 135.716 C 94.680 132.404,94.544 129.803,94.365 129.608 C 94.300 129.537,92.337 129.467,90.003 129.451 L 85.759 129.423 85.118 128.782 L 84.477 128.141 84.497 125.760 C 84.526 122.387,84.423 119.667,84.261 119.504 C 84.184 119.427,82.090 119.342,79.607 119.315 L 75.091 119.265 74.852 118.693 C 74.649 118.205,74.613 114.428,74.613 93.201 L 74.613 68.282 75.011 67.809 L 75.409 67.336 79.737 67.280 C 83.067 67.237,84.119 67.172,84.298 67.000 C 84.485 66.819,84.525 65.951,84.507 62.496 L 84.484 58.216 84.915 57.841 L 85.347 57.465 105.105 57.382 L 124.863 57.298 125.084 56.462 C 125.329 55.531,125.354 53.978,125.173 50.857 L 125.052 48.766 120.284 48.673 C 117.662 48.622,115.505 48.566,115.491 48.548 C 115.476 48.530,115.267 48.178,115.026 47.767 L 114.588 47.019 114.608 43.292 C 114.620 41.242,114.576 39.283,114.511 38.938 L 114.392 38.310 110.014 38.310 C 104.097 38.310,104.534 38.750,104.526 32.790 C 104.518 27.306,104.538 27.265,107.319 26.946 C 108.547 26.806,114.411 26.935,115.129 27.118 M96.645 69.391 C 96.413 69.647,96.370 70.265,96.349 73.692 C 96.316 78.877,95.985 79.551,93.676 79.129 C 92.950 78.996,88.199 79.062,87.229 79.219 C 86.923 79.268,86.631 79.455,86.513 79.676 C 86.277 80.118,86.311 117.483,86.547 117.719 C 86.799 117.971,174.938 117.894,175.190 117.641 C 175.366 117.466,175.417 113.807,175.456 98.788 L 175.504 80.153 175.013 79.603 C 174.456 78.980,174.698 79.001,169.469 79.125 C 165.251 79.224,165.286 79.270,165.286 73.718 C 165.286 71.465,165.241 69.503,165.185 69.357 C 165.018 68.921,97.039 68.955,96.645 69.391 M210.414 70.038 C 210.670 70.228,211.053 70.438,211.264 70.505 C 211.475 70.572,211.962 70.952,212.348 71.350 C 214.026 73.079,214.714 74.224,214.995 75.749 C 215.092 76.275,215.255 76.807,215.359 76.932 C 216.226 77.984,214.909 80.434,213.586 80.227 C 213.238 80.172,212.456 80.219,211.849 80.331 L 210.745 80.535 210.338 80.041 C 209.545 79.080,209.434 78.816,209.336 77.641 C 209.091 74.723,206.806 74.119,206.296 76.838 C 206.196 77.371,206.000 77.922,205.859 78.063 C 205.414 78.508,205.421 86.488,205.867 87.350 C 205.994 87.595,206.188 88.346,206.299 89.018 C 206.679 91.315,208.740 92.155,209.377 90.272 C 209.498 89.913,209.672 89.573,209.763 89.517 C 209.854 89.461,209.978 88.926,210.038 88.329 C 210.253 86.193,210.372 86.097,212.798 86.120 L 214.387 86.136 214.926 86.723 C 215.222 87.047,215.517 87.522,215.583 87.779 C 215.761 88.487,215.034 91.799,214.542 92.523 C 214.319 92.850,214.136 93.214,214.136 93.332 C 214.136 93.826,211.552 96.025,210.969 96.026 C 210.836 96.026,210.554 96.191,210.341 96.391 C 209.692 97.000,206.595 97.058,205.398 96.483 C 204.913 96.250,204.272 95.968,203.973 95.856 C 203.674 95.743,203.430 95.585,203.430 95.505 C 203.430 95.424,203.260 95.188,203.054 94.982 C 202.249 94.177,201.604 93.177,201.495 92.567 C 201.432 92.215,201.235 91.768,201.057 91.572 C 200.848 91.343,200.699 90.867,200.638 90.234 C 200.584 89.677,200.389 88.997,200.188 88.666 C 199.622 87.733,199.639 78.385,200.209 77.376 C 200.416 77.009,200.586 76.512,200.586 76.272 C 200.586 75.667,200.899 74.824,201.162 74.724 C 201.282 74.678,201.429 74.378,201.489 74.058 C 201.549 73.738,201.714 73.380,201.856 73.262 C 201.997 73.144,202.223 72.836,202.357 72.576 C 202.492 72.316,202.708 72.104,202.837 72.104 C 202.966 72.104,203.114 71.972,203.165 71.811 C 203.352 71.222,205.263 69.915,206.190 69.743 C 207.528 69.493,209.901 69.660,210.414 70.038 M228.485 70.130 C 228.967 70.361,229.832 71.007,230.407 71.566 C 231.738 72.861,231.851 73.002,232.076 73.655 C 232.178 73.952,232.397 74.383,232.562 74.613 C 232.727 74.843,232.943 75.550,233.042 76.185 C 233.141 76.819,233.294 77.473,233.382 77.638 C 233.961 78.720,233.939 86.775,233.354 87.868 C 233.269 88.027,233.132 88.692,233.050 89.345 C 232.967 90.008,232.783 90.663,232.634 90.828 C 232.487 90.990,232.251 91.565,232.111 92.106 C 231.970 92.646,231.794 93.129,231.720 93.177 C 231.646 93.226,231.491 93.446,231.375 93.664 C 231.039 94.303,229.526 95.819,229.134 95.911 C 228.936 95.957,228.323 96.189,227.771 96.425 C 226.330 97.043,223.940 97.055,222.747 96.451 C 222.300 96.224,221.721 95.992,221.461 95.935 C 221.013 95.837,219.824 94.873,219.824 94.607 C 219.824 94.538,219.606 94.233,219.339 93.929 C 219.053 93.603,218.805 93.082,218.733 92.655 C 218.666 92.259,218.501 91.854,218.367 91.756 C 218.234 91.658,218.023 91.130,217.900 90.582 C 217.776 90.034,217.542 89.247,217.380 88.833 C 216.875 87.544,216.922 78.537,217.440 77.342 C 217.647 76.865,217.820 76.225,217.824 75.920 C 217.833 75.255,218.237 74.055,218.480 73.974 C 218.575 73.942,218.654 73.791,218.654 73.637 C 218.657 72.455,221.239 70.263,223.245 69.740 C 224.379 69.444,227.544 69.680,228.485 70.130 M244.132 70.171 C 244.427 70.291,245.020 70.440,245.450 70.502 C 245.881 70.564,246.408 70.746,246.621 70.906 C 246.835 71.066,247.229 71.292,247.497 71.408 C 248.827 71.985,250.778 74.392,251.107 75.864 C 251.197 76.265,251.418 76.844,251.598 77.151 C 251.858 77.592,251.948 78.160,252.033 79.883 C 252.091 81.079,252.239 82.323,252.361 82.648 C 252.545 83.141,252.544 83.307,252.353 83.652 C 252.220 83.892,252.119 84.592,252.113 85.320 C 252.098 87.027,251.836 88.927,251.540 89.471 C 251.405 89.718,251.172 90.316,251.021 90.799 C 250.870 91.282,250.685 91.677,250.609 91.677 C 250.534 91.677,250.396 91.884,250.303 92.137 C 250.054 92.819,248.197 94.775,247.561 95.026 C 247.258 95.146,246.843 95.394,246.638 95.576 C 246.353 95.831,245.896 95.940,244.670 96.043 C 243.791 96.117,242.980 96.236,242.866 96.307 C 242.753 96.378,241.440 96.448,239.948 96.464 L 237.236 96.492 236.635 95.967 L 236.033 95.441 236.035 83.229 L 236.036 71.016 236.627 70.499 L 237.217 69.982 240.407 69.967 C 242.675 69.957,243.751 70.016,244.132 70.171 M268.190 70.598 C 268.728 71.645,268.418 74.347,267.690 74.955 L 267.135 75.418 264.182 75.431 C 260.496 75.446,260.644 75.340,260.644 77.960 C 260.644 80.114,260.455 79.967,263.230 79.967 C 265.776 79.967,265.726 79.923,265.804 82.180 C 265.919 85.472,265.862 85.542,262.959 85.653 L 260.728 85.738 260.728 88.331 L 260.728 90.924 264.303 90.951 C 268.671 90.983,268.396 90.827,268.477 93.312 C 268.584 96.567,268.817 96.460,261.648 96.451 C 255.526 96.444,255.042 96.362,254.755 95.274 C 254.646 94.858,254.535 82.996,254.596 78.210 C 254.606 77.474,254.598 75.666,254.580 74.193 C 254.544 71.220,254.684 70.576,255.430 70.287 C 256.195 69.992,256.406 69.983,262.217 69.998 L 267.889 70.013 268.190 70.598 M274.613 70.107 C 274.797 70.110,276.780 70.068,279.019 70.013 C 283.847 69.894,284.133 69.946,284.416 70.986 C 284.670 71.922,284.510 73.949,284.133 74.556 C 283.589 75.433,283.522 75.450,280.545 75.450 C 276.858 75.450,276.872 75.440,276.872 78.106 C 276.872 80.478,276.861 80.466,279.026 80.437 C 280.613 80.415,280.689 80.432,281.445 80.952 L 282.225 81.488 282.223 82.944 C 282.219 85.458,281.577 86.232,279.748 85.930 C 278.712 85.758,277.332 85.995,277.076 86.388 C 277.010 86.491,276.955 88.469,276.955 90.784 C 276.955 95.535,276.887 95.816,275.683 96.056 C 275.370 96.118,274.814 96.243,274.446 96.334 C 272.612 96.785,271.735 96.762,271.410 96.251 C 271.244 95.990,271.012 95.716,270.895 95.642 C 270.725 95.536,270.682 93.010,270.682 83.310 L 270.682 71.112 271.216 70.504 L 271.749 69.896 273.014 69.999 C 273.709 70.055,274.429 70.104,274.613 70.107 M315.600 70.290 C 316.400 70.546,316.675 70.852,316.682 71.494 C 316.685 71.757,316.876 72.195,317.106 72.469 C 317.336 72.742,317.524 73.172,317.524 73.424 C 317.524 73.684,317.757 74.186,318.059 74.579 L 318.594 75.276 318.819 74.740 C 318.943 74.446,319.141 74.090,319.259 73.949 C 319.377 73.808,319.562 73.382,319.671 73.002 C 319.779 72.622,319.980 72.217,320.118 72.103 C 320.255 71.989,320.368 71.724,320.368 71.513 C 320.368 70.213,324.844 69.202,325.821 70.281 C 326.286 70.794,326.261 72.246,325.776 72.902 C 325.576 73.172,325.334 73.687,325.237 74.046 C 325.141 74.405,324.909 74.829,324.722 74.989 C 324.536 75.148,324.383 75.434,324.383 75.624 C 324.383 75.814,324.195 76.246,323.965 76.585 C 323.735 76.923,323.547 77.304,323.547 77.430 C 323.547 77.556,323.358 77.883,323.128 78.157 C 322.898 78.430,322.710 78.826,322.710 79.037 C 322.710 79.247,322.555 79.617,322.366 79.857 C 321.823 80.548,321.373 82.358,321.651 82.737 C 321.774 82.905,321.874 83.137,321.874 83.253 C 321.874 83.370,322.062 83.742,322.292 84.081 C 322.522 84.420,322.710 84.865,322.710 85.070 C 322.710 85.275,322.867 85.642,323.059 85.886 C 323.251 86.129,323.484 86.610,323.578 86.954 C 323.672 87.297,323.891 87.713,324.066 87.878 C 324.253 88.055,324.383 88.404,324.383 88.732 C 324.383 89.094,324.531 89.445,324.809 89.746 C 325.043 89.998,325.278 90.422,325.331 90.686 C 325.384 90.951,325.525 91.249,325.645 91.349 C 325.765 91.448,325.958 91.901,326.075 92.356 C 326.191 92.811,326.351 93.183,326.431 93.183 C 327.109 93.183,327.260 95.721,326.607 96.148 C 325.373 96.957,320.368 96.394,320.368 95.447 C 320.368 95.329,320.268 95.148,320.145 95.046 C 320.022 94.944,319.820 94.539,319.697 94.147 C 319.573 93.755,319.382 93.321,319.272 93.183 C 319.162 93.045,318.983 92.654,318.874 92.315 C 318.765 91.976,318.536 91.520,318.364 91.301 C 318.193 91.083,317.988 90.658,317.910 90.356 L 317.767 89.806 317.245 90.616 C 316.958 91.062,316.643 91.717,316.546 92.073 C 316.449 92.429,316.263 92.843,316.134 92.993 C 316.004 93.144,315.808 93.636,315.698 94.088 C 315.255 95.908,314.112 96.561,311.588 96.436 C 308.892 96.302,308.648 95.716,310.065 92.765 C 310.463 91.936,311.069 90.657,311.411 89.921 C 311.754 89.184,312.137 88.394,312.262 88.164 C 312.387 87.934,312.796 87.133,313.169 86.384 C 313.542 85.635,313.955 84.934,314.085 84.826 C 314.312 84.638,314.680 83.296,314.680 82.658 C 314.680 82.492,314.501 82.092,314.282 81.769 C 314.064 81.447,313.789 80.891,313.672 80.533 C 313.556 80.175,313.326 79.710,313.162 79.499 C 312.997 79.287,312.812 78.873,312.750 78.579 C 312.687 78.284,312.503 77.892,312.339 77.708 C 312.176 77.524,311.986 77.185,311.917 76.955 C 311.848 76.725,311.660 76.349,311.499 76.119 C 311.337 75.889,311.132 75.437,311.043 75.115 C 310.954 74.793,310.682 74.237,310.438 73.879 C 310.195 73.521,309.993 73.107,309.990 72.959 C 309.988 72.810,309.875 72.543,309.740 72.365 C 309.235 71.697,309.507 70.394,310.216 70.086 C 310.712 69.870,314.769 70.023,315.600 70.290 M291.537 70.521 C 292.146 70.879,292.265 71.033,292.275 71.483 C 292.282 71.779,292.300 76.213,292.317 81.338 C 292.338 88.038,292.400 90.710,292.536 90.847 C 292.664 90.974,293.834 91.046,296.087 91.064 C 300.355 91.099,300.221 91.015,300.185 93.611 C 300.146 96.404,300.234 96.372,292.537 96.394 C 285.645 96.414,286.078 96.553,286.061 94.308 C 286.000 86.093,286.104 70.834,286.223 70.716 C 286.304 70.634,287.058 70.510,287.898 70.441 C 288.737 70.371,289.473 70.265,289.533 70.205 C 289.783 69.955,290.860 70.125,291.537 70.521 M306.935 70.296 C 308.079 70.784,307.988 69.668,307.988 83.257 L 307.988 95.530 307.445 95.757 C 304.943 96.798,302.248 96.951,301.781 96.077 C 301.388 95.344,301.439 71.221,301.833 70.826 C 302.046 70.613,302.553 70.510,303.806 70.423 C 304.733 70.359,305.539 70.259,305.597 70.201 C 305.765 70.033,306.428 70.080,306.935 70.296 M224.158 75.993 C 223.106 78.082,222.979 88.719,223.989 90.171 C 224.149 90.402,224.327 90.716,224.385 90.870 C 224.507 91.199,225.241 91.327,225.868 91.129 C 226.215 91.019,226.405 90.738,226.778 89.786 L 227.249 88.582 227.314 83.624 C 227.354 80.516,227.314 78.455,227.207 78.103 C 226.390 75.430,226.290 75.289,225.223 75.285 C 224.558 75.282,224.495 75.325,224.158 75.993 M242.678 75.714 C 242.622 75.860,242.576 79.331,242.576 83.428 L 242.576 90.877 242.963 90.780 C 243.734 90.586,244.584 90.162,244.584 89.971 C 244.584 89.863,244.737 89.612,244.924 89.413 C 246.311 87.936,246.452 79.225,245.120 77.332 C 244.941 77.079,244.742 76.702,244.678 76.495 C 244.614 76.288,244.453 76.119,244.322 76.119 C 244.190 76.119,243.931 75.968,243.747 75.784 C 243.346 75.383,242.818 75.348,242.678 75.714 " stroke="none" fill="#fbfbfb" fill-rule="evenodd"></path><path id="path2" d="M107.132 27.560 C 105.327 27.663,105.322 27.678,105.260 32.510 C 105.186 38.349,104.988 38.019,108.496 37.934 L 110.665 37.881 108.391 37.845 C 105.254 37.795,105.492 38.190,105.429 32.935 L 105.379 28.765 105.858 28.286 C 106.308 27.836,106.447 27.800,108.166 27.693 C 109.173 27.631,110.071 27.553,110.163 27.521 C 110.359 27.453,108.604 27.475,107.132 27.560 M146.717 27.556 C 145.739 27.667,145.715 27.774,145.699 32.027 C 145.691 34.149,145.631 36.319,145.564 36.850 C 145.483 37.502,145.501 37.796,145.620 37.756 C 145.736 37.717,145.812 36.240,145.841 33.445 C 145.901 27.681,145.870 27.776,147.704 27.768 C 148.154 27.766,148.243 27.725,148.055 27.604 C 147.917 27.514,147.691 27.452,147.553 27.466 C 147.415 27.479,147.039 27.520,146.717 27.556 M150.941 27.552 C 151.102 27.594,151.366 27.594,151.527 27.552 C 151.688 27.509,151.556 27.475,151.234 27.475 C 150.912 27.475,150.780 27.509,150.941 27.552 M154.580 27.541 C 154.580 27.573,154.844 27.710,155.168 27.845 C 155.491 27.980,155.825 28.263,155.910 28.474 C 156.057 28.840,156.065 28.842,156.075 28.508 C 156.088 28.074,155.648 27.674,155.040 27.565 C 154.787 27.520,154.580 27.509,154.580 27.541 M113.147 27.760 C 114.849 27.841,115.160 27.900,115.363 28.179 C 115.540 28.421,115.600 28.440,115.600 28.254 C 115.600 27.698,115.230 27.603,113.183 27.635 L 111.167 27.666 113.147 27.760 M115.642 29.360 C 115.644 29.728,115.678 29.859,115.718 29.651 C 115.759 29.443,115.757 29.142,115.715 28.982 C 115.673 28.822,115.640 28.992,115.642 29.360 M156.054 32.455 C 156.096 34.065,156.158 35.414,156.192 35.452 C 156.301 35.577,156.223 31.393,156.098 30.448 C 156.031 29.941,156.011 30.845,156.054 32.455 M115.660 32.455 C 115.660 33.329,115.689 33.687,115.723 33.250 C 115.758 32.813,115.758 32.097,115.723 31.660 C 115.689 31.223,115.660 31.581,115.660 32.455 M115.655 35.550 C 115.656 36.194,115.686 36.437,115.722 36.090 C 115.758 35.743,115.758 35.216,115.721 34.919 C 115.684 34.622,115.654 34.906,115.655 35.550 M155.935 36.391 C 155.900 37.775,155.828 37.803,152.186 37.846 L 148.975 37.884 152.068 37.934 C 156.049 37.998,156.528 37.781,156.065 36.124 C 155.974 35.798,155.948 35.852,155.935 36.391 M114.452 38.010 C 115.171 38.179,115.242 38.243,115.407 38.879 L 115.586 39.565 115.496 38.896 C 115.383 38.050,115.340 38.010,114.429 37.910 L 113.676 37.827 114.452 38.010 M125.303 38.024 C 125.696 38.223,125.727 38.335,125.815 39.904 L 125.908 41.573 125.940 39.891 C 125.974 38.120,125.867 37.806,125.228 37.811 C 124.921 37.813,124.929 37.836,125.303 38.024 M135.917 38.045 C 135.638 38.250,135.591 38.508,135.573 39.927 C 135.550 41.746,135.593 41.713,135.829 39.735 C 135.954 38.683,136.065 38.336,136.352 38.104 C 136.797 37.743,136.403 37.690,135.917 38.045 M146.081 38.176 C 145.971 38.287,145.889 38.569,145.900 38.804 C 145.919 39.199,145.928 39.194,146.026 38.729 C 146.126 38.261,146.196 38.220,147.052 38.128 L 147.972 38.030 147.127 38.003 C 146.656 37.988,146.193 38.065,146.081 38.176 M145.944 42.911 C 145.945 44.015,145.972 44.445,146.004 43.866 C 146.037 43.288,146.037 42.384,146.004 41.859 C 145.971 41.333,145.944 41.807,145.944 42.911 M125.839 44.531 C 125.820 45.882,125.875 47.173,125.961 47.399 L 126.118 47.810 130.660 47.814 C 136.295 47.818,135.843 48.066,135.843 44.974 C 135.843 42.187,135.654 42.274,135.593 45.090 C 135.567 46.294,135.470 47.282,135.369 47.383 C 135.172 47.580,126.366 47.626,126.170 47.430 C 126.107 47.368,126.015 46.138,125.964 44.696 L 125.872 42.074 125.839 44.531 M115.317 43.915 C 115.318 44.467,115.350 44.672,115.387 44.372 C 115.424 44.071,115.423 43.619,115.385 43.368 C 115.347 43.117,115.316 43.363,115.317 43.915 M115.371 46.508 C 115.513 47.904,115.759 48.185,116.817 48.161 L 117.691 48.141 116.859 48.002 C 115.962 47.852,115.610 47.535,115.583 46.852 C 115.574 46.617,115.502 46.236,115.422 46.006 C 115.324 45.723,115.308 45.885,115.371 46.508 M145.657 47.418 C 145.603 47.558,145.311 47.781,145.009 47.913 L 144.458 48.153 144.915 48.167 C 145.347 48.180,146.062 47.470,145.840 47.248 C 145.793 47.201,145.710 47.277,145.657 47.418 M120.744 48.134 C 121.043 48.172,121.533 48.172,121.832 48.134 C 122.131 48.097,121.886 48.067,121.288 48.067 C 120.690 48.067,120.445 48.097,120.744 48.134 M124.634 48.166 L 125.554 48.264 125.642 52.781 L 125.730 57.298 125.767 52.757 C 125.810 47.653,125.901 47.992,124.495 48.041 L 123.714 48.068 124.634 48.166 M136.192 48.168 C 136.007 48.285,135.964 48.732,135.992 50.211 C 136.041 52.714,136.177 52.782,136.177 50.303 C 136.177 47.982,135.853 48.198,139.440 48.133 L 141.949 48.087 139.189 48.053 C 137.670 48.034,136.322 48.086,136.192 48.168 M135.893 54.538 C 135.893 55.044,135.924 55.251,135.963 54.998 C 136.001 54.745,136.001 54.331,135.963 54.078 C 135.924 53.825,135.893 54.032,135.893 54.538 M125.220 57.549 C 125.036 57.628,116.110 57.698,105.385 57.705 C 83.542 57.718,85.359 57.596,85.238 59.055 L 85.161 59.975 85.321 59.231 C 85.618 57.848,83.667 57.977,105.644 57.884 C 121.044 57.818,125.332 57.755,125.496 57.591 C 125.734 57.353,125.691 57.347,125.220 57.549 M136.418 57.624 C 136.708 57.855,138.799 57.884,155.678 57.884 C 166.092 57.884,174.853 57.932,175.147 57.991 C 176.175 58.196,176.244 58.502,176.244 62.840 C 176.244 64.975,176.302 66.780,176.373 66.851 C 176.443 66.921,176.481 64.991,176.456 62.562 L 176.412 58.144 175.993 57.933 C 175.663 57.766,171.481 57.721,156.200 57.719 C 142.955 57.717,136.709 57.661,136.459 57.540 C 136.106 57.369,136.105 57.372,136.418 57.624 M85.209 61.230 C 85.209 61.920,85.238 62.202,85.275 61.857 C 85.311 61.512,85.311 60.947,85.275 60.602 C 85.238 60.257,85.209 60.540,85.209 61.230 M85.198 64.241 C 85.198 64.655,85.231 64.824,85.271 64.617 C 85.311 64.410,85.311 64.072,85.271 63.864 C 85.231 63.657,85.198 63.827,85.198 64.241 M85.203 66.248 C 85.203 66.754,85.234 66.962,85.272 66.708 C 85.311 66.455,85.311 66.041,85.272 65.788 C 85.234 65.535,85.203 65.742,85.203 66.248 M76.119 68.055 C 74.850 68.138,74.948 66.021,74.948 93.345 C 74.948 121.705,74.750 118.794,76.672 118.754 C 77.334 118.740,77.650 118.701,77.373 118.668 C 76.127 118.516,75.744 118.404,75.440 118.100 C 75.071 117.730,74.914 69.978,75.279 69.017 C 75.535 68.344,76.064 68.250,80.458 68.101 L 84.567 67.961 80.719 67.983 C 78.603 67.995,76.533 68.027,76.119 68.055 M180.594 68.078 C 185.865 68.281,185.962 68.302,186.208 69.329 C 186.326 69.825,186.332 69.818,186.348 69.155 C 186.375 68.065,186.378 68.066,181.563 68.004 L 177.248 67.949 180.594 68.078 M113.815 68.381 C 123.277 68.405,138.710 68.405,148.110 68.381 C 157.511 68.358,149.770 68.338,130.908 68.338 C 112.045 68.338,104.354 68.358,113.815 68.381 M95.629 69.183 C 95.572 69.332,95.525 71.212,95.525 73.359 L 95.525 77.264 95.013 77.776 L 94.502 78.287 90.622 78.336 L 86.742 78.384 90.673 78.421 C 94.598 78.459,94.606 78.459,95.107 78.058 L 95.609 77.657 95.692 73.333 C 95.782 68.677,95.784 68.780,95.629 69.183 M207.026 70.017 C 206.934 70.051,206.549 70.158,206.170 70.255 C 204.455 70.695,201.832 73.306,201.509 74.894 C 201.449 75.187,201.294 75.515,201.165 75.622 C 201.035 75.730,200.883 76.093,200.827 76.428 C 200.772 76.764,200.533 77.715,200.297 78.542 C 199.785 80.337,199.802 85.893,200.324 87.600 C 200.468 88.072,200.662 88.855,200.754 89.341 C 200.846 89.826,201.038 90.456,201.180 90.741 C 201.322 91.026,201.511 91.580,201.599 91.973 C 201.760 92.690,202.576 93.986,203.023 94.237 C 203.155 94.310,203.262 94.474,203.262 94.601 C 203.262 94.947,204.013 95.470,204.964 95.785 C 205.429 95.940,206.008 96.170,206.251 96.296 C 208.282 97.357,212.850 95.206,213.929 92.681 C 214.066 92.359,214.330 91.766,214.514 91.363 C 214.979 90.349,215.126 87.838,214.754 87.270 C 214.385 86.707,212.892 86.478,211.336 86.746 C 210.662 86.863,210.503 87.156,210.288 88.672 C 209.761 92.389,207.133 92.988,206.024 89.644 C 205.118 86.911,204.954 79.063,205.762 77.123 C 205.973 76.616,206.211 75.975,206.291 75.696 C 206.858 73.718,209.094 74.486,209.532 76.810 C 210.071 79.661,210.247 79.821,212.702 79.682 C 214.942 79.555,215.071 79.432,214.925 77.576 C 214.575 73.126,210.134 68.876,207.026 70.017 M222.667 70.440 C 219.731 71.586,218.315 73.992,217.457 79.297 C 216.987 82.199,217.662 89.854,218.481 90.924 C 218.551 91.016,218.744 91.506,218.908 92.012 C 219.930 95.156,224.218 97.533,226.664 96.312 C 226.949 96.170,227.427 96.003,227.727 95.940 C 231.959 95.058,234.471 86.094,232.884 77.541 C 232.301 74.396,230.224 71.149,228.451 70.608 C 228.169 70.522,227.637 70.337,227.269 70.197 C 226.119 69.761,224.138 69.866,222.667 70.440 M237.140 70.641 C 236.402 71.054,236.386 71.311,236.387 83.098 C 236.389 97.282,236.015 95.956,240.003 95.917 C 246.245 95.856,247.947 95.150,249.999 91.770 C 251.606 89.123,252.508 82.024,251.637 78.879 C 251.535 78.511,251.306 77.680,251.129 77.033 C 250.822 75.912,249.904 74.091,249.585 73.972 C 249.503 73.941,249.435 73.822,249.435 73.707 C 249.435 73.487,248.960 73.029,247.846 72.178 C 246.964 71.503,245.307 70.785,244.395 70.681 C 242.935 70.516,237.419 70.485,237.140 70.641 M256.679 70.597 C 254.882 70.723,255.047 69.553,254.989 82.610 C 254.936 94.809,254.958 95.425,255.461 95.694 C 255.707 95.825,265.240 95.971,267.210 95.874 C 268.121 95.829,268.667 93.504,268.099 92.087 L 267.828 91.409 264.337 91.456 C 260.085 91.514,260.466 91.821,260.467 88.330 C 260.468 84.993,260.321 85.195,262.811 85.125 C 265.324 85.054,265.416 84.988,265.579 83.145 C 265.804 80.605,265.503 80.301,262.767 80.301 C 260.313 80.301,260.389 80.385,260.446 77.730 C 260.510 74.716,260.323 74.851,264.241 74.984 C 267.544 75.096,268.003 74.791,268.058 72.447 C 268.104 70.449,268.450 70.572,262.714 70.539 C 260.057 70.524,257.341 70.550,256.679 70.597 M271.777 70.637 C 271.305 70.902,271.264 71.934,271.269 83.576 C 271.275 96.464,271.269 96.392,272.243 96.127 C 272.443 96.073,273.246 95.982,274.028 95.925 C 276.448 95.747,276.371 95.936,276.421 89.968 C 276.461 85.288,276.289 85.594,278.927 85.514 C 279.959 85.482,280.901 85.375,281.022 85.276 C 281.647 84.760,281.925 82.964,281.523 82.024 C 281.092 81.013,280.991 80.971,278.979 80.968 C 276.424 80.964,276.370 80.902,276.370 77.959 C 276.370 75.006,276.449 74.949,280.571 74.945 C 281.987 74.944,283.228 74.887,283.329 74.820 C 283.973 74.390,284.259 71.391,283.709 70.840 C 283.407 70.538,272.293 70.349,271.777 70.637 M311.083 70.542 C 309.779 70.760,309.686 71.834,310.818 73.609 C 311.096 74.047,314.469 81.038,314.584 81.415 C 314.644 81.614,314.803 81.868,314.937 81.979 C 315.465 82.417,315.051 84.085,313.943 85.989 C 313.809 86.219,313.122 87.612,312.416 89.084 C 311.710 90.556,311.015 91.987,310.872 92.263 C 309.232 95.434,309.363 95.842,312.034 95.884 C 314.196 95.918,314.410 95.803,315.114 94.228 C 316.627 90.845,317.418 89.287,317.663 89.205 C 317.832 89.149,318.267 89.987,320.227 94.140 C 321.060 95.907,321.097 95.925,323.935 95.900 C 326.865 95.875,327.274 95.541,326.398 93.885 C 325.910 92.962,325.052 91.083,325.052 90.937 C 325.052 90.867,324.902 90.618,324.718 90.384 C 324.534 90.150,324.383 89.840,324.383 89.694 C 324.383 89.548,323.962 88.560,323.448 87.500 C 321.982 84.477,321.573 83.592,321.457 83.187 C 321.398 82.980,321.279 82.811,321.193 82.811 C 320.992 82.811,320.990 81.723,321.191 81.344 C 322.634 78.618,325.889 71.735,325.889 71.409 C 325.889 70.739,325.557 70.594,323.758 70.485 L 322.094 70.383 321.408 71.004 C 321.030 71.345,320.631 71.901,320.520 72.240 C 320.410 72.579,320.185 73.029,320.021 73.241 C 319.856 73.452,319.670 73.863,319.606 74.155 C 319.542 74.446,319.295 74.978,319.057 75.338 L 318.624 75.991 318.082 75.346 C 317.784 74.990,317.495 74.511,317.439 74.280 C 317.383 74.049,317.116 73.431,316.845 72.905 C 316.574 72.380,316.353 71.761,316.353 71.529 C 316.353 70.758,313.264 70.179,311.083 70.542 M287.876 70.750 C 286.180 70.931,286.324 69.787,286.324 83.109 C 286.324 89.524,286.380 94.971,286.448 95.214 C 286.628 95.854,286.851 95.877,293.017 95.873 C 299.456 95.870,299.362 95.888,299.610 94.623 C 300.007 92.607,300.008 92.636,299.495 92.026 L 299.014 91.454 295.787 91.471 C 292.597 91.488,292.556 91.484,292.161 91.088 L 291.761 90.689 291.761 81.084 C 291.761 69.275,292.144 70.293,287.876 70.750 M303.434 70.750 C 301.823 70.922,301.959 69.765,301.948 83.388 C 301.936 97.363,301.756 96.098,303.752 96.047 C 305.471 96.003,306.916 95.711,307.252 95.339 C 307.525 95.038,307.545 94.211,307.544 83.122 L 307.543 71.228 307.138 70.917 C 306.710 70.587,305.472 70.532,303.434 70.750 M210.376 71.207 C 211.379 71.728,212.587 72.821,212.894 73.485 C 213.053 73.830,213.279 74.192,213.395 74.288 C 213.510 74.384,213.695 74.835,213.804 75.291 C 213.913 75.747,214.066 76.159,214.143 76.207 C 214.356 76.338,214.523 77.714,214.403 78.352 L 214.298 78.914 212.783 79.012 C 210.875 79.135,210.844 79.121,210.526 77.983 C 210.268 77.061,209.926 76.009,209.577 75.064 C 209.413 74.619,208.407 73.943,207.911 73.945 C 205.355 73.956,204.334 78.329,204.949 86.634 C 205.072 88.288,205.228 89.301,205.429 89.753 C 205.594 90.121,205.824 90.672,205.942 90.976 C 206.943 93.572,210.090 92.628,210.633 89.570 C 210.877 88.198,211.220 87.519,211.734 87.390 C 212.346 87.237,214.177 87.458,214.334 87.705 C 215.015 88.777,213.607 92.814,212.102 94.104 C 211.227 94.854,210.034 95.526,209.549 95.542 C 209.266 95.551,208.849 95.610,208.622 95.673 C 207.180 96.075,204.296 95.066,203.346 93.826 C 203.070 93.466,202.676 92.958,202.470 92.696 C 202.264 92.434,201.978 91.713,201.835 91.094 C 201.691 90.475,201.472 89.807,201.347 89.610 C 200.823 88.782,200.168 80.579,200.566 79.836 C 200.657 79.665,200.855 78.817,201.005 77.950 C 201.156 77.084,201.347 76.292,201.432 76.191 C 201.516 76.089,201.694 75.696,201.828 75.316 C 202.216 74.216,204.347 71.602,204.855 71.602 C 204.954 71.602,205.129 71.508,205.244 71.393 C 205.889 70.746,209.256 70.624,210.376 71.207 M227.885 71.203 C 229.764 71.981,231.657 74.555,231.957 76.740 C 232.018 77.180,232.142 77.836,232.234 78.197 C 233.269 82.283,232.267 90.045,230.298 93.191 C 227.795 97.189,220.979 96.307,219.435 91.786 C 218.456 88.920,218.141 87.046,217.941 82.894 C 217.761 79.161,219.029 74.291,220.646 72.503 C 222.160 70.829,225.523 70.225,227.885 71.203 M244.859 71.451 C 246.027 71.808,247.446 72.568,247.969 73.118 C 248.129 73.285,248.355 73.483,248.472 73.558 C 250.730 74.994,252.130 82.805,250.930 87.283 C 250.752 87.948,250.606 88.626,250.605 88.788 C 250.602 89.352,249.011 92.156,248.219 92.992 C 246.484 94.824,244.767 95.353,240.543 95.356 L 237.423 95.358 237.239 94.831 C 236.973 94.066,236.983 72.112,237.250 71.526 L 237.444 71.100 240.578 71.100 C 243.283 71.100,243.869 71.148,244.859 71.451 M267.182 71.602 C 267.436 71.956,267.459 72.161,267.329 72.940 C 267.108 74.267,267.075 74.279,263.630 74.279 C 259.731 74.279,259.907 74.115,259.745 77.897 C 259.670 79.666,259.686 79.789,260.077 80.365 L 260.489 80.970 262.331 80.970 C 264.861 80.970,265.161 81.130,265.161 82.471 C 265.161 84.125,264.837 84.362,262.467 84.439 C 259.779 84.526,259.890 84.367,259.897 88.128 C 259.901 90.619,259.949 91.178,260.194 91.635 L 260.485 92.179 263.897 92.179 C 265.773 92.179,267.428 92.225,267.573 92.281 C 268.048 92.463,267.933 94.215,267.405 94.843 L 266.972 95.358 261.724 95.358 C 256.091 95.358,255.707 95.307,255.555 94.540 C 255.273 93.109,255.563 71.780,255.870 71.441 C 256.176 71.103,256.308 71.096,261.532 71.140 L 266.882 71.184 267.182 71.602 M283.452 71.715 C 283.614 72.280,283.490 73.526,283.230 73.944 C 283.103 74.148,282.464 74.210,279.791 74.279 C 275.570 74.386,275.868 74.107,275.868 77.959 C 275.868 81.677,275.763 81.536,278.592 81.611 C 280.979 81.674,281.054 81.725,281.054 83.288 C 281.054 84.624,280.894 84.721,278.543 84.818 C 275.679 84.936,275.868 84.570,275.868 89.998 C 275.868 92.693,275.799 94.501,275.684 94.831 L 275.501 95.358 273.696 95.358 C 271.966 95.358,271.888 95.342,271.791 94.981 C 271.616 94.327,271.671 71.995,271.849 71.527 L 272.013 71.095 277.657 71.140 L 283.300 71.184 283.452 71.715 M290.747 71.393 L 291.109 71.686 291.142 81.418 C 291.175 91.028,291.180 91.157,291.528 91.623 L 291.880 92.095 295.279 92.141 C 299.388 92.196,299.532 92.284,298.946 94.394 C 298.682 95.345,298.606 95.358,293.152 95.355 C 287.666 95.353,287.533 95.339,287.269 94.760 C 287.119 94.432,287.011 82.344,287.072 72.763 C 287.079 71.657,287.330 71.411,288.597 71.267 C 290.276 71.077,290.363 71.082,290.747 71.393 M306.592 71.456 C 306.777 71.609,306.817 73.712,306.817 83.140 C 306.817 96.608,307.075 95.196,304.591 95.363 C 302.613 95.497,302.638 95.526,302.625 93.025 C 302.562 80.050,302.631 71.724,302.804 71.516 C 303.142 71.108,306.117 71.061,306.592 71.456 M315.308 71.509 C 315.623 71.774,316.109 72.632,316.685 73.938 C 318.162 77.290,318.968 77.512,319.959 74.840 C 320.125 74.393,320.393 73.835,320.554 73.599 C 320.716 73.364,320.900 72.949,320.964 72.679 C 321.229 71.555,321.954 71.100,323.478 71.100 C 325.628 71.100,325.637 71.025,322.859 76.578 C 320.415 81.462,320.288 81.884,320.836 83.334 C 321.342 84.674,323.497 89.118,323.703 89.244 C 323.801 89.305,323.881 89.484,323.881 89.642 C 323.881 89.800,324.105 90.379,324.378 90.929 C 324.651 91.478,324.877 91.998,324.880 92.085 C 324.883 92.171,325.037 92.403,325.223 92.600 C 325.408 92.798,325.648 93.380,325.756 93.894 C 326.048 95.284,325.929 95.369,323.732 95.345 C 321.673 95.322,321.148 95.112,320.845 94.194 C 320.737 93.869,320.473 93.271,320.258 92.866 C 320.042 92.461,319.866 92.026,319.866 91.900 C 319.866 91.774,319.640 91.248,319.364 90.730 C 319.088 90.213,318.862 89.700,318.862 89.590 C 318.862 89.481,318.606 89.096,318.293 88.736 L 317.725 88.080 317.299 88.477 C 316.894 88.855,315.528 91.454,315.265 92.346 C 315.198 92.576,315.046 92.877,314.928 93.015 C 314.810 93.153,314.621 93.578,314.509 93.958 C 314.218 94.941,313.433 95.358,311.875 95.358 C 310.304 95.358,310.220 95.047,311.242 93.015 C 311.636 92.233,312.167 91.142,312.422 90.590 C 312.676 90.038,313.364 88.599,313.950 87.392 C 314.535 86.185,315.015 85.147,315.015 85.085 C 315.015 85.023,315.183 84.744,315.389 84.465 C 315.977 83.670,315.898 82.250,315.209 81.209 C 314.918 80.770,314.680 80.296,314.680 80.155 C 314.680 80.015,313.814 78.156,312.756 76.024 C 310.247 70.970,310.239 71.100,313.028 71.100 C 314.687 71.100,314.858 71.131,315.308 71.509 M165.676 74.195 C 165.677 74.839,165.707 75.082,165.743 74.735 C 165.779 74.388,165.779 73.861,165.742 73.564 C 165.705 73.267,165.675 73.551,165.676 74.195 M224.058 74.311 C 222.484 75.072,221.790 80.434,222.319 87.746 C 222.552 90.963,223.842 92.740,225.716 92.424 C 227.707 92.087,228.524 89.392,228.524 83.158 C 228.523 75.845,227.025 72.877,224.058 74.311 M242.141 74.521 C 241.387 74.844,241.405 74.623,241.405 83.300 C 241.405 90.701,241.427 91.310,241.698 91.546 C 242.932 92.623,245.112 91.685,246.132 89.640 C 247.513 86.868,247.540 79.469,246.179 76.806 C 245.313 75.112,243.353 74.003,242.141 74.521 M226.192 74.953 C 228.547 76.214,228.412 90.408,226.034 91.524 C 223.662 92.638,222.740 90.026,222.751 82.225 C 222.756 78.446,222.779 78.272,223.550 76.222 C 224.027 74.953,225.168 74.405,226.192 74.953 M243.881 75.352 C 245.540 76.221,246.235 77.790,246.403 81.050 C 246.728 87.345,245.813 90.484,243.447 91.187 C 242.103 91.586,242.158 91.925,242.158 83.248 C 242.158 74.506,242.169 74.455,243.881 75.352 M165.636 76.977 C 165.626 77.265,165.806 77.598,166.155 77.939 L 166.688 78.461 170.964 78.427 L 175.240 78.393 171.050 78.302 C 166.392 78.200,166.113 78.135,165.808 77.080 C 165.661 76.571,165.650 76.565,165.636 76.977 M175.954 98.407 C 175.986 112.698,175.947 117.880,175.808 118.048 C 175.682 118.199,175.183 118.288,174.342 118.310 L 173.066 118.342 174.233 118.402 C 174.875 118.434,175.572 118.418,175.781 118.366 L 176.161 118.270 176.158 98.826 C 176.157 88.131,176.100 79.294,176.033 79.188 C 175.965 79.082,175.929 87.730,175.954 98.407 M85.568 96.780 C 85.568 106.349,85.588 110.239,85.613 105.424 C 85.637 100.610,85.637 92.780,85.613 88.026 C 85.588 83.271,85.568 87.210,85.568 96.780 M186.419 112.756 C 186.419 113.354,186.449 113.599,186.487 113.300 C 186.524 113.001,186.524 112.512,186.487 112.212 C 186.449 111.913,186.419 112.158,186.419 112.756 M85.547 116.018 C 85.546 116.847,85.574 117.206,85.609 116.818 C 85.645 116.430,85.645 115.752,85.610 115.312 C 85.576 114.873,85.547 115.190,85.547 116.018 M186.225 117.445 C 186.189 118.017,185.774 118.573,185.318 118.661 C 184.980 118.726,184.986 118.735,185.378 118.756 C 185.991 118.788,186.405 118.272,186.320 117.582 C 186.269 117.165,186.245 117.130,186.225 117.445 M88.749 118.450 C 92.354 118.618,170.020 118.605,169.218 118.437 C 168.850 118.359,150.029 118.305,127.394 118.315 C 104.760 118.325,87.369 118.386,88.749 118.450 M171.309 118.342 C 171.309 118.378,171.567 118.438,171.883 118.475 C 172.198 118.511,172.420 118.482,172.375 118.409 C 172.294 118.278,171.309 118.216,171.309 118.342 M83.181 118.768 C 85.168 118.940,85.133 118.894,85.195 121.430 L 85.247 123.547 85.284 121.440 C 85.330 118.761,85.289 118.707,83.170 118.668 L 81.723 118.642 83.181 118.768 M176.730 118.774 C 176.275 118.958,176.146 120.551,176.260 124.550 C 176.383 128.881,176.815 128.534,171.142 128.661 L 166.876 128.757 171.334 128.745 C 177.111 128.729,176.495 129.321,176.495 123.784 C 176.495 120.200,176.537 119.430,176.743 119.224 C 177.046 118.921,178.163 118.716,178.792 118.848 C 179.047 118.902,179.368 118.871,179.506 118.781 C 179.824 118.573,177.244 118.567,176.730 118.774 M180.470 118.897 C 180.678 118.937,180.980 118.936,181.140 118.894 C 181.299 118.852,181.129 118.819,180.761 118.821 C 180.393 118.823,180.262 118.857,180.470 118.897 M183.563 118.899 C 183.816 118.937,184.230 118.937,184.483 118.899 C 184.737 118.860,184.529 118.829,184.023 118.829 C 183.517 118.829,183.310 118.860,183.563 118.899 M85.178 126.992 C 85.137 128.776,85.007 128.730,90.147 128.747 L 94.437 128.762 90.219 128.664 C 85.307 128.549,85.465 128.605,85.304 126.928 L 85.204 125.889 85.178 126.992 M118.917 128.775 C 125.572 128.799,136.413 128.799,143.008 128.775 C 149.602 128.750,144.157 128.731,130.908 128.731 C 117.658 128.731,112.262 128.750,118.917 128.775 M166.060 130.008 C 166.003 130.296,165.956 132.079,165.956 133.971 C 165.956 138.987,166.243 138.736,160.572 138.655 C 156.546 138.597,156.130 138.487,155.896 137.414 C 155.802 136.984,155.788 137.006,155.771 137.615 C 155.733 138.904,155.825 138.930,160.695 138.990 C 166.586 139.062,166.270 139.378,166.234 133.455 C 166.220 131.272,166.199 129.486,166.187 129.486 C 166.175 129.486,166.118 129.721,166.060 130.008 M105.671 131.033 C 105.613 131.516,105.565 133.193,105.564 134.760 C 105.562 138.760,105.712 138.632,100.870 138.747 C 96.726 138.846,95.848 138.637,95.350 137.432 C 95.230 137.141,95.210 137.159,95.201 137.570 C 95.194 137.882,95.361 138.214,95.690 138.543 L 96.189 139.042 100.499 138.990 C 106.286 138.920,105.912 139.289,105.880 133.687 C 105.859 129.928,105.837 129.650,105.671 131.033 M155.622 130.824 C 155.622 131.146,155.657 131.278,155.699 131.117 C 155.741 130.956,155.741 130.692,155.699 130.531 C 155.657 130.370,155.622 130.502,155.622 130.824 M155.815 133.835 C 155.815 134.985,155.842 135.456,155.875 134.881 C 155.907 134.306,155.907 133.365,155.875 132.790 C 155.842 132.215,155.815 132.685,155.815 133.835 " stroke="none" fill="#bd9796" fill-rule="evenodd"></path><path id="path3" d="M107.176 27.745 C 106.388 27.839,106.117 27.954,105.788 28.337 L 105.379 28.812 105.429 32.971 C 105.494 38.350,104.877 37.771,110.649 37.878 C 113.125 37.923,115.218 38.028,115.300 38.111 C 115.383 38.193,115.468 40.248,115.490 42.677 C 115.544 48.566,114.978 48.013,120.951 48.013 C 123.330 48.013,125.395 48.059,125.540 48.115 C 125.916 48.259,125.942 56.964,125.568 57.475 C 125.336 57.793,124.888 57.802,105.666 57.884 C 87.084 57.963,85.985 57.984,85.702 58.266 C 85.435 58.533,85.395 59.035,85.320 63.067 C 85.257 66.448,85.182 67.625,85.019 67.788 C 84.859 67.948,83.680 68.037,80.566 68.126 C 76.046 68.256,75.536 68.341,75.279 69.017 C 75.055 69.607,75.054 117.516,75.279 117.936 C 75.617 118.568,76.361 118.673,80.576 118.684 C 85.861 118.698,85.320 118.143,85.320 123.554 C 85.320 129.114,84.806 128.553,89.947 128.609 C 95.681 128.673,95.189 128.202,95.239 133.670 L 95.274 137.509 95.798 138.033 C 96.507 138.742,97.168 138.835,100.870 138.747 C 105.786 138.630,105.503 138.929,105.602 133.752 C 105.685 129.407,105.791 128.946,106.747 128.755 C 107.658 128.573,154.735 128.631,155.078 128.815 C 155.603 129.096,155.802 130.504,155.841 134.212 C 155.890 138.910,155.635 138.688,160.973 138.684 C 166.244 138.681,165.955 138.958,165.957 133.909 C 165.958 128.286,165.615 128.649,170.928 128.649 C 176.829 128.649,176.317 129.157,176.276 123.345 C 176.252 120.077,176.294 119.080,176.463 118.912 C 176.630 118.745,177.704 118.695,181.119 118.695 C 186.226 118.695,186.080 118.742,186.279 117.060 C 186.488 115.296,186.297 69.202,186.079 68.823 C 185.804 68.343,185.230 68.266,181.096 68.156 C 175.953 68.018,176.253 68.354,176.248 62.728 C 176.244 58.513,176.170 58.195,175.147 57.991 C 174.853 57.932,166.092 57.884,155.678 57.884 C 134.164 57.884,136.209 58.050,136.023 56.285 C 135.888 55.004,135.959 48.343,136.110 48.192 C 136.162 48.140,138.238 48.059,140.723 48.013 C 146.492 47.907,145.880 48.532,145.880 42.746 C 145.880 39.183,145.925 38.314,146.115 38.157 C 146.272 38.026,147.831 37.929,150.896 37.859 L 155.444 37.755 155.723 37.329 C 156.034 36.854,156.183 29.246,155.896 28.474 C 155.601 27.681,154.842 27.558,150.817 27.646 C 145.402 27.764,145.906 27.175,145.841 33.459 L 145.797 37.725 141.160 37.808 C 137.188 37.880,136.485 37.931,136.253 38.162 C 135.829 38.588,135.680 40.449,135.791 43.931 C 135.929 48.225,136.466 47.818,130.660 47.814 L 126.118 47.810 125.964 47.407 C 125.880 47.185,125.815 45.074,125.821 42.717 C 125.833 37.305,126.426 37.903,120.990 37.850 C 118.624 37.826,116.522 37.769,116.319 37.723 C 115.721 37.586,115.602 36.705,115.601 32.413 C 115.600 27.688,115.631 27.771,113.885 27.770 C 113.310 27.770,111.786 27.738,110.498 27.699 C 109.210 27.660,107.715 27.681,107.176 27.745 M114.655 28.639 L 115.090 29.026 115.105 32.037 C 115.128 36.937,115.147 36.704,114.688 37.198 L 114.278 37.641 110.861 37.641 C 106.891 37.641,106.506 37.590,106.251 37.031 C 105.993 36.464,105.995 29.048,106.254 28.634 C 106.588 28.099,114.052 28.103,114.655 28.639 M155.122 28.677 C 155.503 29.378,155.466 36.600,155.078 37.144 L 154.748 37.608 150.690 37.611 L 146.633 37.614 146.334 37.211 C 146.063 36.846,146.039 36.437,146.083 32.860 L 146.131 28.912 146.537 28.583 C 147.179 28.064,154.834 28.147,155.122 28.677 M125.368 38.319 C 125.613 38.565,125.552 46.261,125.301 46.759 L 125.048 47.261 120.885 47.305 C 117.318 47.344,116.664 47.312,116.318 47.085 L 115.914 46.821 115.966 42.643 C 116.010 39.154,116.060 38.438,116.269 38.301 C 116.530 38.130,125.197 38.148,125.368 38.319 M145.509 42.409 C 145.535 44.709,145.515 46.761,145.464 46.968 L 145.372 47.344 141.032 47.344 C 136.911 47.344,136.682 47.328,136.518 47.021 C 136.251 46.522,136.285 38.363,136.554 38.252 C 136.669 38.205,138.720 38.180,141.113 38.197 L 145.462 38.227 145.509 42.409 M135.169 48.593 C 135.320 48.775,135.359 49.945,135.321 53.138 L 135.269 57.438 135.736 57.787 C 136.201 58.134,136.247 58.135,155.136 58.174 C 165.549 58.195,174.349 58.214,174.691 58.216 C 175.643 58.220,175.672 58.367,175.688 63.280 C 175.708 69.144,175.146 68.596,181.180 68.642 C 184.398 68.667,185.372 68.725,185.587 68.904 C 185.842 69.115,185.864 71.045,185.864 93.528 L 185.864 117.922 185.153 118.024 C 184.762 118.080,182.748 118.103,180.678 118.076 L 176.913 118.026 176.827 98.118 C 176.780 87.169,176.724 78.193,176.702 78.172 C 176.199 77.694,175.521 77.624,171.331 77.624 C 168.942 77.624,166.868 77.579,166.722 77.523 C 166.490 77.434,166.458 76.879,166.458 73.021 L 166.458 68.620 165.943 68.187 L 165.428 67.754 130.657 67.754 L 95.885 67.754 95.370 68.187 L 94.856 68.620 94.856 72.922 C 94.856 76.044,94.801 77.278,94.655 77.424 C 94.509 77.570,93.259 77.624,90.080 77.624 C 85.846 77.624,85.696 77.636,85.388 77.977 C 85.079 78.318,85.068 78.924,85.025 98.057 L 84.981 117.785 84.554 117.947 C 84.095 118.122,76.451 118.172,75.826 118.004 L 75.450 117.903 75.450 93.517 L 75.450 69.131 75.870 68.856 C 76.234 68.617,76.869 68.583,80.679 68.596 C 86.422 68.617,85.822 69.221,85.822 63.416 L 85.822 58.946 86.221 58.571 L 86.620 58.196 106.142 58.165 C 125.256 58.135,125.670 58.128,125.902 57.810 C 126.093 57.549,126.140 56.614,126.140 53.028 C 126.140 50.577,126.190 48.521,126.251 48.460 C 126.502 48.209,134.955 48.335,135.169 48.593 M165.456 68.800 C 165.761 69.301,165.787 69.651,165.788 73.279 C 165.789 78.608,165.444 78.290,171.225 78.295 C 175.396 78.299,175.580 78.325,175.916 78.976 C 176.327 79.770,176.280 118.183,175.868 118.384 C 175.507 118.559,92.886 118.647,88.880 118.476 C 86.907 118.392,85.931 118.286,85.785 118.140 C 85.509 117.864,85.379 79.940,85.651 79.224 C 85.960 78.409,86.593 78.294,90.739 78.294 L 94.495 78.294 95.010 77.779 L 95.525 77.264 95.525 73.337 C 95.525 69.097,95.626 68.523,96.401 68.374 C 96.609 68.334,112.157 68.291,130.952 68.279 L 165.124 68.256 165.456 68.800 M175.417 119.350 C 175.734 119.582,175.867 127.826,175.559 128.136 C 175.507 128.188,173.381 128.269,170.835 128.315 C 164.779 128.424,165.454 127.809,165.454 133.222 C 165.454 136.417,165.399 137.671,165.253 137.817 C 164.953 138.117,157.114 138.090,156.715 137.787 C 156.455 137.589,156.421 137.112,156.381 133.155 L 156.336 128.742 155.918 128.531 C 155.249 128.193,106.233 128.219,105.577 128.558 C 104.947 128.884,104.897 129.271,104.895 133.871 C 104.893 137.456,104.875 137.681,104.570 137.844 C 104.078 138.108,96.669 138.075,96.316 137.808 C 96.071 137.624,96.035 137.077,96.010 133.201 C 95.974 127.813,96.624 128.423,90.807 128.315 C 87.459 128.252,86.285 128.176,86.123 128.014 C 85.583 127.474,85.679 119.753,86.230 119.350 C 86.719 118.993,174.929 118.993,175.417 119.350 " stroke="none" fill="#d47984" fill-rule="evenodd"></path><path id="path4" d="M107.319 26.946 C 104.538 27.265,104.518 27.306,104.526 32.790 C 104.534 38.750,104.097 38.310,110.014 38.310 L 114.392 38.310 114.511 38.938 C 114.576 39.283,114.620 41.242,114.608 43.292 L 114.588 47.019 115.026 47.767 C 115.267 48.178,115.476 48.530,115.491 48.548 C 115.505 48.566,117.662 48.622,120.284 48.673 L 125.052 48.766 125.173 50.857 C 125.354 53.978,125.329 55.531,125.084 56.462 L 124.863 57.298 105.105 57.382 L 85.347 57.465 84.915 57.841 L 84.484 58.216 84.507 62.496 C 84.525 65.951,84.485 66.819,84.298 67.000 C 84.119 67.172,83.067 67.237,79.737 67.280 L 75.409 67.336 75.011 67.809 L 74.613 68.282 74.613 93.201 C 74.613 114.428,74.649 118.205,74.852 118.693 L 75.091 119.265 79.607 119.315 C 82.090 119.342,84.184 119.427,84.261 119.504 C 84.423 119.667,84.526 122.387,84.497 125.760 L 84.477 128.141 85.118 128.782 L 85.759 129.423 90.003 129.451 C 92.337 129.467,94.300 129.537,94.365 129.608 C 94.544 129.803,94.680 132.404,94.684 135.716 L 94.688 138.685 95.383 139.188 L 96.077 139.691 100.297 139.691 C 106.725 139.691,106.371 140.016,106.344 134.137 C 106.334 131.773,106.368 129.795,106.421 129.742 C 106.836 129.327,154.360 129.366,154.775 129.782 C 154.934 129.940,154.997 131.094,155.025 134.341 C 155.067 139.184,155.012 138.864,155.892 139.323 C 156.888 139.842,164.613 139.870,165.615 139.359 C 166.604 138.854,166.625 138.757,166.625 134.620 C 166.625 128.980,166.135 129.488,171.629 129.438 L 175.575 129.402 176.286 128.940 C 176.677 128.686,177.000 128.422,177.004 128.354 C 177.008 128.286,177.027 126.299,177.046 123.937 C 177.065 121.575,177.144 119.580,177.220 119.504 C 177.297 119.427,179.292 119.363,181.654 119.362 C 186.327 119.360,186.357 119.355,186.863 118.497 L 187.209 117.911 187.164 93.209 C 187.114 66.100,187.190 67.968,186.118 67.574 C 185.837 67.471,184.055 67.355,182.100 67.313 C 176.482 67.192,177.100 67.802,176.997 62.282 L 176.913 57.800 176.328 57.600 C 175.888 57.450,170.926 57.398,156.399 57.391 C 138.628 57.383,137.036 57.359,136.825 57.106 C 136.568 56.796,136.395 51.155,136.594 49.561 L 136.703 48.683 141.004 48.683 C 145.391 48.683,146.048 48.592,146.048 47.988 C 146.048 47.893,146.198 47.624,146.382 47.390 C 146.695 46.993,146.717 46.711,146.717 43.160 C 146.717 41.068,146.764 39.121,146.821 38.833 L 146.926 38.310 151.297 38.308 C 157.405 38.304,156.959 38.750,156.934 32.671 C 156.913 27.744,156.851 27.451,155.751 27.121 C 154.734 26.817,147.151 26.837,146.323 27.147 C 145.379 27.500,145.384 27.476,145.381 32.250 L 145.379 36.646 144.918 36.842 C 144.619 36.969,143.054 37.052,140.448 37.079 C 137.119 37.113,136.407 37.162,136.256 37.369 C 136.155 37.507,135.873 37.669,135.629 37.730 C 134.999 37.888,134.985 38.007,135.034 42.584 C 135.074 46.268,135.049 46.732,134.801 46.913 C 134.339 47.251,126.980 47.226,126.600 46.885 C 126.231 46.555,126.146 38.872,126.508 38.511 C 126.664 38.355,126.664 38.310,126.508 38.310 C 126.397 38.310,126.307 38.201,126.307 38.068 C 126.307 37.934,126.205 37.765,126.081 37.691 C 125.956 37.618,125.824 37.462,125.787 37.345 C 125.735 37.183,124.678 37.117,121.304 37.064 C 117.884 37.011,116.858 36.946,116.751 36.775 C 116.405 36.222,116.282 34.699,116.367 32.037 C 116.416 30.473,116.461 29.027,116.465 28.824 C 116.479 28.156,115.801 27.290,115.129 27.118 C 114.411 26.935,108.547 26.806,107.319 26.946 M115.427 27.875 C 115.627 28.064,115.680 28.901,115.717 32.497 C 115.743 34.912,115.801 37.048,115.847 37.242 C 115.965 37.746,116.535 37.804,121.380 37.807 C 124.414 37.808,125.626 37.864,125.772 38.009 C 125.918 38.155,125.973 39.423,125.975 42.652 C 125.976 45.095,126.042 47.195,126.120 47.318 C 126.316 47.627,135.085 47.667,135.392 47.360 C 135.537 47.215,135.592 45.942,135.592 42.722 C 135.592 37.190,134.936 37.808,140.800 37.808 C 144.265 37.808,145.390 37.758,145.491 37.599 C 145.563 37.484,145.651 35.304,145.687 32.754 C 145.732 29.440,145.809 28.038,145.956 27.837 C 146.296 27.373,155.320 27.433,155.790 27.903 C 156.116 28.229,156.375 35.120,156.131 37.000 C 156.016 37.893,155.733 37.947,150.773 38.017 C 147.695 38.060,146.321 38.138,146.182 38.276 C 146.041 38.417,145.982 39.729,145.975 42.877 C 145.966 46.602,145.923 47.341,145.699 47.679 L 145.434 48.078 141.182 48.132 C 138.844 48.162,136.771 48.222,136.576 48.265 C 135.872 48.421,135.820 57.179,136.521 57.554 C 136.712 57.656,143.985 57.717,156.200 57.719 C 171.473 57.721,175.664 57.766,175.993 57.933 L 176.412 58.144 176.495 62.756 C 176.556 66.089,176.637 67.439,176.787 67.620 C 176.960 67.827,177.775 67.887,181.449 67.963 C 184.862 68.035,185.955 68.109,186.128 68.282 C 186.314 68.468,186.356 72.793,186.376 93.329 L 186.399 118.151 186.043 118.507 C 185.701 118.849,185.533 118.863,181.718 118.877 C 176.921 118.895,177.083 118.884,176.758 119.209 C 176.533 119.434,176.495 120.087,176.495 123.784 C 176.495 129.323,177.145 128.717,171.132 128.786 C 165.565 128.850,166.219 128.220,166.241 133.497 C 166.266 139.372,166.579 139.062,160.695 138.990 C 155.241 138.923,155.754 139.334,155.742 135.022 C 155.731 131.210,155.558 129.177,155.227 128.967 C 154.660 128.607,106.474 128.791,106.146 129.154 C 105.867 129.462,105.843 129.822,105.874 133.342 C 105.925 139.331,106.317 138.919,100.499 138.990 L 96.189 139.042 95.690 138.543 L 95.190 138.043 95.181 134.057 C 95.175 131.431,95.103 129.871,94.972 129.486 L 94.772 128.900 90.303 128.816 C 84.619 128.710,85.246 129.330,85.202 123.764 C 85.173 120.032,85.130 119.353,84.904 119.127 C 84.678 118.901,83.974 118.856,80.086 118.816 C 75.709 118.771,75.522 118.755,75.240 118.421 C 74.846 117.951,74.779 68.886,75.172 68.348 C 75.378 68.066,75.785 68.034,80.149 67.963 C 82.763 67.920,84.964 67.827,85.040 67.756 C 85.116 67.685,85.192 65.504,85.208 62.909 C 85.235 58.450,85.254 58.178,85.561 57.954 C 85.837 57.752,88.804 57.716,105.333 57.716 C 117.563 57.716,124.939 57.656,125.209 57.553 L 125.638 57.390 125.638 52.879 C 125.638 49.542,125.585 48.335,125.436 48.243 C 125.326 48.175,123.133 48.114,120.563 48.108 L 115.891 48.096 115.620 47.688 C 115.387 47.337,115.349 46.651,115.349 42.809 C 115.349 40.350,115.287 38.276,115.210 38.199 C 115.134 38.122,113.101 38.038,110.693 38.012 C 104.622 37.946,105.183 38.515,105.260 32.510 C 105.330 27.010,104.771 27.440,111.669 27.576 C 114.347 27.628,115.240 27.699,115.427 27.875 M95.876 68.950 C 95.762 69.276,95.692 71.006,95.692 73.484 L 95.692 77.490 95.184 77.965 L 94.675 78.440 90.422 78.492 C 86.883 78.536,86.125 78.587,85.913 78.799 C 85.561 79.152,85.508 117.700,85.859 118.052 C 86.163 118.355,175.388 118.404,175.753 118.101 C 176.089 117.822,176.112 79.626,175.777 78.963 L 175.565 78.545 171.095 78.461 L 166.625 78.377 166.140 77.919 L 165.654 77.460 165.724 73.529 C 165.781 70.334,165.748 69.487,165.549 69.010 L 165.304 68.423 130.682 68.423 L 96.059 68.423 95.876 68.950 M165.185 69.357 C 165.241 69.503,165.286 71.465,165.286 73.718 C 165.286 79.270,165.251 79.224,169.469 79.125 C 174.698 79.001,174.456 78.980,175.013 79.603 L 175.504 80.153 175.456 98.788 C 175.417 113.807,175.366 117.466,175.190 117.641 C 174.938 117.894,86.799 117.971,86.547 117.719 C 86.311 117.483,86.277 80.118,86.513 79.676 C 86.631 79.455,86.923 79.268,87.229 79.219 C 88.199 79.062,92.950 78.996,93.676 79.129 C 95.985 79.551,96.316 78.877,96.349 73.692 C 96.370 70.265,96.413 69.647,96.645 69.391 C 97.039 68.955,165.018 68.921,165.185 69.357 M206.190 69.743 C 205.263 69.915,203.352 71.222,203.165 71.811 C 203.114 71.972,202.966 72.104,202.837 72.104 C 202.708 72.104,202.492 72.316,202.357 72.576 C 202.223 72.836,201.997 73.144,201.856 73.262 C 201.714 73.380,201.549 73.738,201.489 74.058 C 201.429 74.378,201.282 74.678,201.162 74.724 C 200.899 74.824,200.586 75.667,200.586 76.272 C 200.586 76.512,200.416 77.009,200.209 77.376 C 199.639 78.385,199.622 87.733,200.188 88.666 C 200.389 88.997,200.584 89.677,200.638 90.234 C 200.699 90.867,200.848 91.343,201.057 91.572 C 201.235 91.768,201.432 92.215,201.495 92.567 C 201.604 93.177,202.249 94.177,203.054 94.982 C 203.260 95.188,203.430 95.424,203.430 95.505 C 203.430 95.585,203.674 95.743,203.973 95.856 C 204.272 95.968,204.913 96.250,205.398 96.483 C 206.595 97.058,209.692 97.000,210.341 96.391 C 210.554 96.191,210.836 96.026,210.969 96.026 C 211.552 96.025,214.136 93.826,214.136 93.332 C 214.136 93.214,214.319 92.850,214.542 92.523 C 215.034 91.799,215.761 88.487,215.583 87.779 C 215.517 87.522,215.222 87.047,214.926 86.723 L 214.387 86.136 212.798 86.120 C 210.372 86.097,210.253 86.193,210.038 88.329 C 209.978 88.926,209.854 89.461,209.763 89.517 C 209.672 89.573,209.498 89.913,209.377 90.272 C 208.740 92.155,206.679 91.315,206.299 89.018 C 206.188 88.346,205.994 87.595,205.867 87.350 C 205.421 86.488,205.414 78.508,205.859 78.063 C 206.000 77.922,206.196 77.371,206.296 76.838 C 206.806 74.119,209.091 74.723,209.336 77.641 C 209.434 78.816,209.545 79.080,210.338 80.041 L 210.745 80.535 211.849 80.331 C 212.456 80.219,213.238 80.172,213.586 80.227 C 214.909 80.434,216.226 77.984,215.359 76.932 C 215.255 76.807,215.092 76.275,214.995 75.749 C 214.714 74.224,214.026 73.079,212.348 71.350 C 211.962 70.952,211.475 70.572,211.264 70.505 C 211.053 70.438,210.670 70.228,210.414 70.038 C 209.901 69.660,207.528 69.493,206.190 69.743 M223.245 69.740 C 221.239 70.263,218.657 72.455,218.654 73.637 C 218.654 73.791,218.575 73.942,218.480 73.974 C 218.237 74.055,217.833 75.255,217.824 75.920 C 217.820 76.225,217.647 76.865,217.440 77.342 C 216.922 78.537,216.875 87.544,217.380 88.833 C 217.542 89.247,217.776 90.034,217.900 90.582 C 218.023 91.130,218.234 91.658,218.367 91.756 C 218.501 91.854,218.666 92.259,218.733 92.655 C 218.805 93.082,219.053 93.603,219.339 93.929 C 219.606 94.233,219.824 94.538,219.824 94.607 C 219.824 94.873,221.013 95.837,221.461 95.935 C 221.721 95.992,222.300 96.224,222.747 96.451 C 223.940 97.055,226.330 97.043,227.771 96.425 C 228.323 96.189,228.936 95.957,229.134 95.911 C 229.526 95.819,231.039 94.303,231.375 93.664 C 231.491 93.446,231.646 93.226,231.720 93.177 C 231.794 93.129,231.970 92.646,232.111 92.106 C 232.251 91.565,232.487 90.990,232.634 90.828 C 232.783 90.663,232.967 90.008,233.050 89.345 C 233.132 88.692,233.269 88.027,233.354 87.868 C 233.939 86.775,233.961 78.720,233.382 77.638 C 233.294 77.473,233.141 76.819,233.042 76.185 C 232.943 75.550,232.727 74.843,232.562 74.613 C 232.397 74.383,232.178 73.952,232.076 73.655 C 231.851 73.002,231.738 72.861,230.407 71.566 C 228.664 69.871,225.671 69.108,223.245 69.740 M210.025 70.373 C 212.658 71.454,214.677 74.422,214.925 77.576 C 215.071 79.432,214.942 79.555,212.702 79.682 C 210.247 79.821,210.071 79.661,209.532 76.810 C 209.094 74.486,206.858 73.718,206.291 75.696 C 206.211 75.975,205.973 76.616,205.762 77.123 C 204.954 79.063,205.118 86.911,206.024 89.644 C 207.133 92.988,209.761 92.389,210.288 88.672 C 210.382 88.010,210.534 87.327,210.627 87.154 C 211.037 86.387,214.235 86.477,214.754 87.270 C 215.126 87.838,214.979 90.349,214.514 91.363 C 214.330 91.766,214.066 92.359,213.929 92.681 C 212.850 95.206,208.282 97.357,206.251 96.296 C 206.008 96.170,205.429 95.940,204.964 95.785 C 204.013 95.470,203.262 94.947,203.262 94.601 C 203.262 94.474,203.155 94.310,203.023 94.237 C 202.576 93.986,201.760 92.690,201.599 91.973 C 201.511 91.580,201.322 91.026,201.180 90.741 C 201.038 90.456,200.846 89.826,200.754 89.341 C 200.662 88.855,200.468 88.072,200.324 87.600 C 199.802 85.893,199.785 80.337,200.297 78.542 C 200.533 77.715,200.772 76.764,200.827 76.428 C 200.883 76.093,201.035 75.730,201.165 75.622 C 201.294 75.515,201.449 75.187,201.509 74.894 C 201.832 73.306,204.455 70.695,206.170 70.255 C 206.549 70.158,206.934 70.051,207.026 70.017 C 207.615 69.801,209.045 69.970,210.025 70.373 M227.269 70.197 C 227.637 70.337,228.169 70.522,228.451 70.608 C 230.224 71.149,232.301 74.396,232.884 77.541 C 234.471 86.094,231.959 95.058,227.727 95.940 C 227.427 96.003,226.949 96.170,226.664 96.312 C 224.218 97.533,219.930 95.156,218.908 92.012 C 218.744 91.506,218.551 91.016,218.481 90.924 C 217.662 89.854,216.987 82.199,217.457 79.297 C 218.071 75.502,219.112 72.941,220.553 71.680 C 222.279 70.171,225.388 69.484,227.269 70.197 M236.627 70.499 L 236.036 71.016 236.035 83.229 L 236.033 95.441 236.635 95.967 L 237.236 96.492 239.948 96.464 C 241.440 96.448,242.753 96.378,242.866 96.307 C 242.980 96.236,243.791 96.117,244.670 96.043 C 245.896 95.940,246.353 95.831,246.638 95.576 C 246.843 95.394,247.258 95.146,247.561 95.026 C 248.197 94.775,250.054 92.819,250.303 92.137 C 250.396 91.884,250.534 91.677,250.609 91.677 C 250.685 91.677,250.870 91.282,251.021 90.799 C 251.172 90.316,251.405 89.718,251.540 89.471 C 251.836 88.927,252.098 87.027,252.113 85.320 C 252.119 84.592,252.220 83.892,252.353 83.652 C 252.544 83.307,252.545 83.141,252.361 82.648 C 252.239 82.323,252.091 81.079,252.033 79.883 C 251.948 78.160,251.858 77.592,251.598 77.151 C 251.418 76.844,251.197 76.265,251.107 75.864 C 250.778 74.392,248.827 71.985,247.497 71.408 C 247.229 71.292,246.835 71.066,246.621 70.906 C 246.408 70.746,245.881 70.564,245.450 70.502 C 245.020 70.440,244.427 70.291,244.132 70.171 C 243.751 70.016,242.675 69.957,240.407 69.967 L 237.217 69.982 236.627 70.499 M256.211 70.049 C 254.689 70.349,254.538 70.734,254.580 74.193 C 254.598 75.666,254.606 77.474,254.596 78.210 C 254.535 82.996,254.646 94.858,254.755 95.274 C 255.042 96.362,255.526 96.444,261.648 96.451 C 268.817 96.460,268.584 96.567,268.477 93.312 C 268.396 90.827,268.671 90.983,264.303 90.951 L 260.728 90.924 260.728 88.331 L 260.728 85.738 262.959 85.653 C 265.862 85.542,265.919 85.472,265.804 82.180 C 265.726 79.923,265.776 79.967,263.230 79.967 C 260.455 79.967,260.644 80.114,260.644 77.960 C 260.644 75.340,260.496 75.446,264.182 75.431 L 267.135 75.418 267.690 74.955 C 268.418 74.347,268.728 71.645,268.190 70.598 L 267.889 70.013 262.217 69.998 C 259.098 69.990,256.395 70.013,256.211 70.049 M271.216 70.504 L 270.682 71.112 270.682 83.310 C 270.682 93.010,270.725 95.536,270.895 95.642 C 271.012 95.716,271.244 95.990,271.410 96.251 C 271.735 96.762,272.612 96.785,274.446 96.334 C 274.814 96.243,275.370 96.118,275.683 96.056 C 276.887 95.816,276.955 95.535,276.955 90.784 C 276.955 88.469,277.010 86.491,277.076 86.388 C 277.332 85.995,278.712 85.758,279.748 85.930 C 281.577 86.232,282.219 85.458,282.223 82.944 L 282.225 81.488 281.445 80.952 C 280.689 80.432,280.613 80.415,279.026 80.437 C 276.861 80.466,276.872 80.478,276.872 78.106 C 276.872 75.440,276.858 75.450,280.545 75.450 C 283.522 75.450,283.589 75.433,284.133 74.556 C 284.510 73.949,284.670 71.922,284.416 70.986 C 284.133 69.946,283.847 69.894,279.019 70.013 C 274.267 70.129,274.627 70.130,273.014 69.999 L 271.749 69.896 271.216 70.504 M310.216 70.086 C 309.507 70.394,309.235 71.697,309.740 72.365 C 309.875 72.543,309.988 72.810,309.990 72.959 C 309.993 73.107,310.195 73.521,310.438 73.879 C 310.682 74.237,310.954 74.793,311.043 75.115 C 311.132 75.437,311.337 75.889,311.499 76.119 C 311.660 76.349,311.848 76.725,311.917 76.955 C 311.986 77.185,312.176 77.524,312.339 77.708 C 312.503 77.892,312.687 78.284,312.750 78.579 C 312.812 78.873,312.997 79.287,313.162 79.499 C 313.326 79.710,313.556 80.175,313.672 80.533 C 313.789 80.891,314.064 81.447,314.282 81.769 C 314.501 82.092,314.680 82.492,314.680 82.658 C 314.680 83.296,314.312 84.638,314.085 84.826 C 313.955 84.934,313.542 85.635,313.169 86.384 C 312.796 87.133,312.387 87.934,312.262 88.164 C 312.137 88.394,311.754 89.184,311.411 89.921 C 311.069 90.657,310.463 91.936,310.065 92.765 C 308.648 95.716,308.892 96.302,311.588 96.436 C 314.112 96.561,315.255 95.908,315.698 94.088 C 315.808 93.636,316.004 93.144,316.134 92.993 C 316.263 92.843,316.449 92.429,316.546 92.073 C 316.643 91.717,316.958 91.062,317.245 90.616 L 317.767 89.806 317.910 90.356 C 317.988 90.658,318.193 91.083,318.364 91.301 C 318.536 91.520,318.765 91.976,318.874 92.315 C 318.983 92.654,319.162 93.045,319.272 93.183 C 319.382 93.321,319.573 93.755,319.697 94.147 C 319.820 94.539,320.022 94.944,320.145 95.046 C 320.268 95.148,320.368 95.329,320.368 95.447 C 320.368 96.394,325.373 96.957,326.607 96.148 C 327.260 95.721,327.109 93.183,326.431 93.183 C 326.351 93.183,326.191 92.811,326.075 92.356 C 325.958 91.901,325.765 91.448,325.645 91.349 C 325.525 91.249,325.384 90.951,325.331 90.686 C 325.278 90.422,325.043 89.998,324.809 89.746 C 324.531 89.445,324.383 89.094,324.383 88.732 C 324.383 88.404,324.253 88.055,324.066 87.878 C 323.891 87.713,323.672 87.297,323.578 86.954 C 323.484 86.610,323.251 86.129,323.059 85.886 C 322.867 85.642,322.710 85.275,322.710 85.070 C 322.710 84.865,322.522 84.420,322.292 84.081 C 322.062 83.742,321.874 83.370,321.874 83.253 C 321.874 83.137,321.774 82.905,321.651 82.737 C 321.373 82.358,321.823 80.548,322.366 79.857 C 322.555 79.617,322.710 79.247,322.710 79.037 C 322.710 78.826,322.898 78.430,323.128 78.157 C 323.358 77.883,323.547 77.556,323.547 77.430 C 323.547 77.304,323.735 76.923,323.965 76.585 C 324.195 76.246,324.383 75.814,324.383 75.624 C 324.383 75.434,324.536 75.148,324.722 74.989 C 324.909 74.829,325.141 74.405,325.237 74.046 C 325.334 73.687,325.576 73.172,325.776 72.902 C 326.261 72.246,326.286 70.794,325.821 70.281 C 324.844 69.202,320.368 70.213,320.368 71.513 C 320.368 71.724,320.255 71.989,320.118 72.103 C 319.980 72.217,319.779 72.622,319.671 73.002 C 319.562 73.382,319.377 73.808,319.259 73.949 C 319.141 74.090,318.943 74.446,318.819 74.740 L 318.594 75.276 318.059 74.579 C 317.757 74.186,317.524 73.684,317.524 73.424 C 317.524 73.172,317.336 72.742,317.106 72.469 C 316.876 72.195,316.685 71.757,316.682 71.494 C 316.675 70.852,316.400 70.546,315.600 70.290 C 314.769 70.023,310.712 69.870,310.216 70.086 M289.533 70.205 C 289.473 70.265,288.737 70.371,287.898 70.441 C 287.058 70.510,286.304 70.634,286.223 70.716 C 286.104 70.834,286.000 86.093,286.061 94.308 C 286.078 96.553,285.645 96.414,292.537 96.394 C 300.234 96.372,300.146 96.404,300.185 93.611 C 300.221 91.015,300.355 91.099,296.087 91.064 C 293.834 91.046,292.664 90.974,292.536 90.847 C 292.400 90.710,292.338 88.038,292.317 81.338 C 292.300 76.213,292.282 71.779,292.275 71.483 C 292.256 70.634,290.106 69.632,289.533 70.205 M305.597 70.201 C 305.539 70.259,304.733 70.359,303.806 70.423 C 301.278 70.598,301.547 69.050,301.547 83.377 C 301.547 98.122,301.283 96.861,304.308 96.550 C 305.660 96.411,306.204 96.273,307.445 95.757 L 307.988 95.530 307.988 83.257 C 307.988 71.774,307.969 70.969,307.696 70.740 C 307.074 70.221,305.883 69.915,305.597 70.201 M244.395 70.681 C 245.307 70.785,246.964 71.503,247.846 72.178 C 248.960 73.029,249.435 73.487,249.435 73.707 C 249.435 73.822,249.503 73.941,249.585 73.972 C 249.904 74.091,250.822 75.912,251.129 77.033 C 251.306 77.680,251.535 78.511,251.637 78.879 C 252.508 82.024,251.606 89.123,249.999 91.770 C 247.947 95.150,246.245 95.856,240.003 95.917 C 236.015 95.956,236.389 97.282,236.387 83.098 C 236.386 71.311,236.402 71.054,237.140 70.641 C 237.419 70.485,242.935 70.516,244.395 70.681 M267.816 70.840 C 268.249 71.273,268.145 73.629,267.667 74.239 C 267.057 75.016,266.805 75.071,264.241 74.984 C 260.323 74.851,260.510 74.716,260.446 77.730 C 260.389 80.385,260.313 80.301,262.767 80.301 C 265.503 80.301,265.804 80.605,265.579 83.145 C 265.416 84.988,265.324 85.054,262.811 85.125 C 260.321 85.195,260.468 84.993,260.467 88.330 C 260.466 91.821,260.085 91.514,264.337 91.456 L 267.828 91.409 268.099 92.087 C 268.667 93.504,268.121 95.829,267.210 95.874 C 265.240 95.971,255.707 95.825,255.461 95.694 C 254.958 95.425,254.936 94.809,254.989 82.610 C 255.029 73.470,255.084 71.072,255.257 70.899 C 255.751 70.404,267.326 70.349,267.816 70.840 M283.709 70.840 C 284.259 71.391,283.973 74.390,283.329 74.820 C 283.228 74.887,281.987 74.944,280.571 74.945 C 276.449 74.949,276.370 75.006,276.370 77.959 C 276.370 80.902,276.424 80.964,278.979 80.968 C 280.991 80.971,281.092 81.013,281.523 82.024 C 281.925 82.964,281.647 84.760,281.022 85.276 C 280.901 85.375,279.959 85.482,278.927 85.514 C 276.289 85.594,276.461 85.288,276.421 89.968 C 276.371 95.936,276.448 95.747,274.028 95.925 C 273.246 95.982,272.443 96.073,272.243 96.127 C 271.269 96.392,271.275 96.464,271.269 83.576 C 271.264 71.934,271.305 70.902,271.777 70.637 C 272.293 70.349,283.407 70.538,283.709 70.840 M315.875 70.862 C 316.209 71.034,316.353 71.236,316.353 71.529 C 316.353 71.761,316.574 72.380,316.845 72.905 C 317.116 73.431,317.383 74.049,317.439 74.280 C 317.495 74.511,317.784 74.990,318.082 75.346 L 318.624 75.991 319.057 75.338 C 319.295 74.978,319.542 74.446,319.606 74.155 C 319.670 73.863,319.856 73.452,320.021 73.241 C 320.185 73.029,320.410 72.579,320.520 72.240 C 320.631 71.901,321.030 71.345,321.408 71.004 L 322.094 70.383 323.758 70.485 C 325.557 70.594,325.889 70.739,325.889 71.409 C 325.889 71.735,322.634 78.618,321.191 81.344 C 320.990 81.723,320.992 82.811,321.193 82.811 C 321.279 82.811,321.398 82.980,321.457 83.187 C 321.573 83.592,321.982 84.477,323.448 87.500 C 323.962 88.560,324.383 89.548,324.383 89.694 C 324.383 89.840,324.534 90.150,324.718 90.384 C 324.902 90.618,325.052 90.867,325.052 90.937 C 325.052 91.083,325.910 92.962,326.398 93.885 C 327.274 95.541,326.865 95.875,323.935 95.900 C 321.097 95.925,321.060 95.907,320.227 94.140 C 318.267 89.987,317.832 89.149,317.663 89.205 C 317.418 89.287,316.627 90.845,315.114 94.228 C 314.410 95.803,314.196 95.918,312.034 95.884 C 310.034 95.852,309.763 95.716,309.868 94.797 C 309.939 94.164,310.106 93.744,310.872 92.263 C 311.015 91.987,311.710 90.556,312.416 89.084 C 313.122 87.612,313.809 86.219,313.943 85.989 C 315.051 84.085,315.465 82.417,314.937 81.979 C 314.803 81.868,314.644 81.614,314.584 81.415 C 314.469 81.038,311.096 74.047,310.818 73.609 C 309.686 71.834,309.779 70.760,311.083 70.542 C 312.042 70.383,315.379 70.605,315.875 70.862 M291.414 71.039 C 291.756 71.473,291.761 71.621,291.761 81.084 L 291.761 90.689 292.161 91.088 C 292.556 91.484,292.597 91.488,295.787 91.471 L 299.014 91.454 299.495 92.026 C 300.008 92.636,300.007 92.607,299.610 94.623 C 299.362 95.888,299.456 95.870,293.017 95.873 C 286.851 95.877,286.628 95.854,286.448 95.214 C 286.143 94.129,286.306 71.464,286.621 71.149 C 287.276 70.495,290.920 70.411,291.414 71.039 M307.138 70.917 L 307.543 71.228 307.544 83.122 C 307.545 96.743,307.699 95.535,305.927 95.840 C 304.058 96.161,302.657 96.123,302.274 95.740 C 301.812 95.278,301.757 71.572,302.217 71.112 C 302.745 70.584,306.511 70.434,307.138 70.917 M224.135 75.260 C 223.061 76.536,222.757 78.067,222.751 82.225 C 222.740 90.026,223.662 92.638,226.034 91.524 C 228.412 90.408,228.547 76.214,226.192 74.953 C 225.531 74.600,224.570 74.743,224.135 75.260 M242.388 75.392 C 242.001 75.858,242.053 90.724,242.444 91.114 C 243.266 91.936,245.271 90.357,245.903 88.390 C 246.712 85.875,246.666 79.268,245.828 77.590 C 244.863 75.658,243.101 74.532,242.388 75.392 M226.137 75.419 C 226.324 75.537,226.747 76.598,227.207 78.103 C 227.314 78.455,227.354 80.516,227.314 83.624 L 227.249 88.582 226.778 89.786 C 226.405 90.738,226.215 91.019,225.868 91.129 C 225.241 91.327,224.507 91.199,224.385 90.870 C 224.327 90.716,224.149 90.402,223.989 90.171 C 222.979 88.719,223.106 78.082,224.158 75.993 C 224.523 75.269,225.469 74.994,226.137 75.419 M243.747 75.784 C 243.931 75.968,244.190 76.119,244.322 76.119 C 244.453 76.119,244.614 76.288,244.678 76.495 C 244.742 76.702,244.941 77.079,245.120 77.332 C 245.708 78.168,246.152 81.193,246.110 84.092 C 246.089 85.608,245.339 88.971,244.924 89.413 C 244.737 89.612,244.584 89.863,244.584 89.971 C 244.584 90.162,243.734 90.586,242.963 90.780 L 242.576 90.877 242.576 83.428 C 242.576 74.869,242.610 74.647,243.747 75.784 " stroke="none" fill="#eacdcc" fill-rule="evenodd"></path></g></svg>